<svg width="3029" height="2647" viewBox="0 0 3029 2647" fill="none" xmlns="http://www.w3.org/2000/svg">
<path d="M2833.19 734.353L2824.26 708.278C2749.49 486.639 2560.38 319.498 2329.35 281.429C2299.61 276.432 2269.54 273.643 2239.39 273.085C2022.25 269.239 1806.55 382.47 1686.34 563.365C1615.68 669.621 1572.91 801.105 1467.96 874.18C1331.85 969.615 1146.78 931.089 985.964 888.847C825.146 846.606 639.882 808.601 504.227 904.558C419.483 964.661 373.004 1067.53 355.142 1169.87C308.273 1441.44 442.103 1724.81 655.462 1899.32C868.821 2073.83 1149.78 2149.64 1425.26 2157.72C1811.24 2169.07 2208.56 2048.01 2491.15 1784.85C2773.73 1521.69 2924.64 1109.44 2833.19 734.353Z" fill="#EBEBEB"/>
<path d="M2033.92 1677.29C2142.14 1677.29 2245.94 1720.27 2322.47 1796.79C2399.01 1873.3 2442.03 1977.08 2442.06 2085.3V2558.56H1625.78V2085.3C1625.81 1977.08 1668.83 1873.3 1745.37 1796.79C1821.91 1720.27 1925.7 1677.29 2033.92 1677.29Z" fill="#455A64"/>
<path d="M1000.43 2329.1L959.367 2358.18L913.735 2467.76C913.735 2467.76 926.121 2476.1 935.704 2467.24C945.286 2458.37 981.922 2394.68 981.922 2394.68V2432.36C981.969 2439.75 984.72 2446.87 989.656 2452.37C994.592 2457.87 1001.37 2461.37 1008.71 2462.22L1076.38 2483.34L1159.43 2459.67L1166.53 2360.85L1000.43 2329.1Z" fill="#FFBE9D"/>
<path d="M1738.29 1600.5C1717.96 1594.63 1707.98 1571.36 1706.16 1550.31C1704.33 1529.25 1707.79 1507.48 1702.05 1487.14C1697.94 1472.67 1689.34 1459.37 1688.23 1444.38C1687.06 1428.21 1694.75 1412.63 1695.27 1396.46C1695.86 1373.84 1682.23 1352.85 1682.23 1330.23C1681.78 1298.94 1687.38 1247.25 1718.67 1249.01C1749.96 1250.77 1800.09 1305.59 1796.12 1336.62" fill="#263238"/>
<path d="M2033.92 1341.45L2033.27 1372.74L2026.75 1840.52C2026.03 1894.82 1978.77 1937.46 1920.62 1936.22C1861.95 1934.98 1814.17 1889.54 1814.04 1834.65C1814.04 1777.03 1812.61 1716.4 1812.61 1716.4C1812.61 1716.4 1738.42 1704.08 1723.04 1607.28C1715.41 1559.17 1717.83 1480.23 1721.87 1415.69C1722.73 1401.93 1726.37 1388.48 1732.57 1376.16C1738.77 1363.83 1747.39 1352.89 1757.93 1343.99C1768.46 1335.09 1780.69 1328.4 1793.87 1324.35C1807.06 1320.29 1820.92 1318.95 1834.64 1320.39L2033.92 1341.45Z" fill="#FFBE9D"/>
<path d="M1741.94 1470.65C1741.92 1473.89 1743.16 1477.01 1745.4 1479.36C1747.64 1481.71 1750.7 1483.09 1753.94 1483.23C1755.54 1483.39 1757.16 1483.22 1758.69 1482.74C1760.22 1482.26 1761.64 1481.47 1762.86 1480.42C1764.08 1479.37 1765.08 1478.08 1765.78 1476.64C1766.49 1475.2 1766.9 1473.62 1766.98 1472.02C1767 1470.39 1766.71 1468.78 1766.11 1467.27C1765.51 1465.76 1764.62 1464.39 1763.48 1463.22C1762.35 1462.06 1761 1461.13 1759.51 1460.49C1758.01 1459.85 1756.41 1459.52 1754.79 1459.5C1753.21 1459.37 1751.62 1459.55 1750.11 1460.04C1748.6 1460.53 1747.21 1461.32 1746.01 1462.36C1744.82 1463.4 1743.84 1464.67 1743.14 1466.09C1742.44 1467.52 1742.03 1469.06 1741.94 1470.65Z" fill="#263238"/>
<path d="M1739.27 1456.76C1740.77 1458.39 1750.22 1451.42 1763.59 1451.48C1776.95 1451.55 1786.73 1458 1788.16 1456.57C1789.6 1455.13 1787.32 1452.92 1783.01 1450.05C1777.26 1446.09 1770.44 1443.98 1763.46 1443.99C1756.4 1443.99 1749.54 1446.27 1743.9 1450.5C1739.92 1452.98 1738.49 1456.05 1739.27 1456.76Z" fill="#263238"/>
<path d="M1875.71 1470.65C1875.66 1473.89 1876.88 1477.02 1879.11 1479.37C1881.34 1481.73 1884.4 1483.11 1887.64 1483.23C1889.24 1483.37 1890.84 1483.19 1892.37 1482.7C1893.9 1482.21 1895.31 1481.42 1896.53 1480.38C1897.74 1479.33 1898.73 1478.05 1899.45 1476.62C1900.16 1475.18 1900.58 1473.62 1900.68 1472.02C1900.71 1468.78 1899.48 1465.65 1897.23 1463.31C1894.99 1460.97 1891.92 1459.6 1888.68 1459.5C1887.09 1459.34 1885.48 1459.5 1883.96 1459.98C1882.43 1460.46 1881.02 1461.25 1879.8 1462.29C1878.59 1463.33 1877.6 1464.61 1876.9 1466.05C1876.19 1467.48 1875.79 1469.05 1875.71 1470.65Z" fill="#263238"/>
<path d="M1870.56 1459.5C1872.12 1461.13 1881.51 1454.22 1894.87 1454.22C1908.24 1454.22 1918.02 1460.74 1919.52 1459.3C1921.02 1457.87 1918.67 1455.65 1914.37 1452.79C1908.6 1448.85 1901.79 1446.73 1894.81 1446.72C1887.76 1446.75 1880.91 1449.03 1875.25 1453.24C1871.21 1455.59 1869.84 1458.52 1870.56 1459.5Z" fill="#263238"/>
<path d="M1822.13 1558.32C1815.07 1556.18 1807.78 1554.86 1800.42 1554.41C1796.96 1554.09 1793.9 1553.37 1793.18 1551.09C1792.91 1547.57 1793.71 1544.05 1795.46 1540.98L1805.57 1514.91C1819.58 1477.95 1829.69 1447.51 1828.19 1446.98C1826.69 1446.46 1814.17 1475.93 1800.16 1512.95C1796.77 1522.08 1793.64 1530.75 1790.44 1539.03C1788.42 1543.06 1787.8 1547.65 1788.68 1552.07C1789.19 1553.26 1789.95 1554.33 1790.92 1555.18C1791.89 1556.04 1793.04 1556.67 1794.29 1557.02C1796.18 1557.55 1798.13 1557.84 1800.09 1557.87C1807.39 1558.97 1814.79 1559.12 1822.13 1558.32Z" fill="#263238"/>
<path d="M1812.87 1716.4C1858.45 1717.12 1903.34 1705.16 1942.53 1681.85C1942.53 1681.85 1911.04 1748.35 1814.17 1739.29L1812.87 1716.4Z" fill="#EB996E"/>
<path d="M1827.73 1590.53C1830.28 1587.33 1833.59 1584.84 1837.37 1583.28C1841.14 1581.71 1845.25 1581.14 1849.31 1581.6C1852.26 1581.86 1855.13 1582.72 1857.74 1584.12C1860.35 1585.52 1862.65 1587.43 1864.5 1589.75C1866.28 1591.97 1867.34 1594.69 1867.53 1597.53C1867.72 1600.38 1867.02 1603.21 1865.54 1605.65C1863.41 1608.06 1860.6 1609.76 1857.49 1610.55C1854.37 1611.34 1851.09 1611.18 1848.07 1610.08C1841.76 1607.85 1835.96 1604.4 1830.99 1599.91C1829.47 1598.84 1828.17 1597.49 1827.14 1595.94C1826.65 1595.21 1826.39 1594.34 1826.39 1593.46C1826.39 1592.58 1826.65 1591.72 1827.14 1590.98" fill="#EB996E"/>
<path d="M1861.43 1567.58C1859.22 1567.58 1859.22 1581.99 1846.83 1592.22C1834.45 1602.46 1818.93 1600.96 1818.87 1602.98C1818.87 1603.89 1822.26 1605.78 1828.77 1605.98C1837.29 1606.09 1845.58 1603.21 1852.18 1597.83C1858.48 1592.67 1862.53 1585.26 1863.45 1577.16C1864.04 1571.1 1862.41 1567.52 1861.43 1567.58Z" fill="#263238"/>
<path d="M1867.1 1406.89C1868.47 1410.54 1881.77 1408.85 1897.48 1410.74C1913.19 1412.63 1925.84 1416.87 1927.86 1413.61C1928.84 1412.04 1926.62 1408.65 1921.34 1405.13C1914.52 1400.82 1906.81 1398.12 1898.79 1397.24C1890.77 1396.36 1882.65 1397.32 1875.06 1400.05C1869.45 1402.33 1866.58 1405.2 1867.1 1406.89Z" fill="#263238"/>
<path d="M1744.16 1418.11C1746.51 1421.17 1755.7 1418.11 1766.78 1418.11C1777.86 1418.11 1787.25 1420.13 1789.4 1417C1790.31 1415.43 1788.88 1412.37 1784.77 1409.5C1779.3 1406 1772.88 1404.27 1766.39 1404.55C1759.88 1404.66 1753.57 1406.8 1748.33 1410.67C1744.42 1413.48 1743.12 1416.61 1744.16 1418.11Z" fill="#263238"/>
<path d="M2069.58 1311.72C2089.72 1257.03 2173.55 1174.83 2238.02 1211.33C2308.62 1251.49 2283.65 1279.39 2309.14 1297.9C2315.2 1302.27 2343.89 1292.75 2347.86 1299.14C2358.36 1316.02 2349.43 1337.86 2340.5 1355.59C2342.73 1355.27 2344.91 1354.7 2347.02 1353.9C2348.84 1353.18 2350.81 1352.93 2352.75 1353.17C2354.7 1353.4 2356.55 1354.12 2358.15 1355.25C2359.74 1356.38 2361.04 1357.9 2361.9 1359.65C2362.77 1361.4 2363.19 1363.35 2363.12 1365.3C2361.91 1386.99 2354.31 1407.83 2341.28 1425.21C2345.71 1426.24 2350.29 1426.4 2354.77 1425.67C2356.2 1425.44 2357.67 1425.58 2359.02 1426.09C2360.38 1426.6 2361.58 1427.45 2362.5 1428.56C2363.43 1429.67 2364.05 1431.01 2364.31 1432.43C2364.57 1433.85 2364.45 1435.32 2363.97 1436.68C2359.99 1447.1 2353.46 1456.34 2344.97 1463.56C2336.48 1470.79 2326.31 1475.76 2315.4 1478.01C2288.48 1483.55 2260.06 1473.78 2238.09 1457.28C2216.12 1440.79 2199.56 1418.17 2184.7 1394.9C2176.03 1381.54 2167.49 1367.46 2154.58 1358.07C2141.68 1348.68 2123.1 1345.03 2109.86 1353.9" fill="#263238"/>
<path d="M2109.73 1351.81C2109.73 1351.81 2109.73 1350.77 2109.73 1349.27C2109.53 1347.02 2108.98 1344.82 2108.1 1342.75C2105.31 1335.88 2101.79 1329.32 2097.61 1323.19C2093.58 1316.83 2088.98 1310.85 2083.85 1305.33C2079.94 1301.16 2077.01 1298.81 2077.34 1298.81C2080.46 1299.75 2083.29 1301.48 2085.55 1303.83C2091.28 1309.07 2096.3 1315.03 2100.48 1321.56C2104.84 1328.01 2108.19 1335.09 2110.39 1342.55C2111.12 1344.89 2111.37 1347.35 2111.1 1349.79C2110.65 1351.09 2109.86 1351.94 2109.73 1351.81Z" fill="#FF5463"/>
<path d="M2273.42 1501.87C2273.42 1501.87 2272.7 1502.59 2271.07 1503.63C2268.74 1505.21 2266.25 1506.55 2263.64 1507.61C2253.98 1511.53 2243.48 1512.92 2233.13 1511.65C2217.58 1509.91 2203.21 1502.53 2192.72 1490.92C2186.72 1483.89 2182.28 1475.67 2179.68 1466.8C2177.01 1457.43 2175.41 1447.79 2174.92 1438.05C2173.68 1418.5 2174.46 1399.4 2170.94 1382.84C2169.43 1375.02 2166.72 1367.48 2162.93 1360.48C2159.49 1354.51 2154.87 1349.3 2149.37 1345.16C2141.54 1338.8 2131.68 1335.46 2121.6 1335.77C2117.93 1336.23 2114.31 1336.99 2110.78 1338.06C2111.55 1337.45 2112.4 1336.97 2113.32 1336.62C2115.92 1335.52 2118.66 1334.77 2121.47 1334.4C2132 1333.61 2142.45 1336.75 2150.8 1343.21C2156.69 1347.46 2161.63 1352.87 2165.34 1359.11C2169.42 1366.3 2172.34 1374.09 2174.01 1382.19C2177.79 1399.2 2177.07 1418.3 2178.31 1437.86C2178.8 1447.34 2180.33 1456.74 2182.87 1465.89C2185.27 1474.31 2189.37 1482.14 2194.93 1488.9C2203.33 1498.16 2214.26 1504.76 2226.37 1507.86C2238.48 1510.97 2251.24 1510.45 2263.05 1506.37C2269.9 1503.89 2273.22 1501.55 2273.42 1501.87Z" fill="#263238"/>
<path d="M2338.48 1238.71C2339.26 1239.84 2339.9 1241.07 2340.37 1242.36C2341.81 1246.07 2342.65 1249.99 2342.84 1253.96C2343.23 1260.29 2342.19 1266.62 2339.78 1272.48C2336.68 1280.41 2331.07 1287.12 2323.81 1291.58C2314.85 1296.77 2304.28 1298.46 2294.15 1296.34C2288.31 1295.23 2282.8 1292.85 2277.98 1289.37C2273.17 1285.89 2269.19 1281.39 2266.31 1276.19C2260.56 1264.76 2256.77 1252.44 2255.1 1239.75C2252.49 1227.04 2250.02 1213.29 2241.41 1202.92C2237.18 1197.88 2231.48 1194.28 2225.12 1192.62C2218.88 1191.08 2212.37 1190.97 2206.08 1192.3C2193.95 1195.03 2182.41 1199.95 2172.05 1206.83C2153.9 1217.93 2136.95 1230.89 2121.47 1245.49C2111.04 1255.34 2101.27 1265.86 2092.2 1276.97L2084.9 1286.17C2084.16 1287.33 2083.26 1288.38 2082.22 1289.3C2082.82 1288.05 2083.54 1286.87 2084.38 1285.77C2085.81 1283.49 2088.16 1280.3 2090.89 1276.19C2099.59 1264.6 2109.18 1253.7 2119.58 1243.6C2134.92 1228.6 2151.86 1215.34 2170.1 1204.03C2180.77 1196.89 2192.65 1191.76 2205.17 1188.91C2211.97 1187.42 2219.02 1187.53 2225.77 1189.23C2233.01 1191.01 2239.51 1195.03 2244.35 1200.71C2253.73 1212.11 2256.14 1226.45 2258.69 1239.1C2260.24 1251.45 2263.83 1263.45 2269.31 1274.63C2271.94 1279.48 2275.61 1283.69 2280.05 1286.97C2284.48 1290.25 2289.59 1292.51 2295 1293.6C2304.49 1295.66 2314.4 1294.2 2322.9 1289.49C2329.81 1285.38 2335.22 1279.17 2338.35 1271.76C2340.78 1266.17 2341.98 1260.12 2341.87 1254.03C2341.54 1248.78 2340.4 1243.61 2338.48 1238.71Z" fill="#263238"/>
<path d="M2093.63 1215.7C2096.84 1218.65 2099.28 1222.34 2100.74 1226.45C2105.06 1236.22 2106.39 1247.03 2104.58 1257.55C2102.78 1268.07 2097.9 1277.82 2090.57 1285.58C2087.82 1288.98 2084.28 1291.66 2080.27 1293.4C2079.94 1292.95 2083.92 1290.01 2088.81 1284.01C2095.22 1276.24 2099.49 1266.92 2101.19 1256.98C2102.9 1247.05 2101.97 1236.84 2098.52 1227.37C2095.91 1220.07 2093.11 1215.96 2093.63 1215.7Z" fill="#263238"/>
<path d="M2103.28 1336.03C2095.87 1317.35 2083.97 1300.77 2068.63 1287.78C2053.3 1274.78 2034.99 1265.76 2015.34 1261.53C1991.31 1257.02 1966.46 1260.38 1944.48 1271.11C1936.39 1265.88 1929.01 1259.64 1922.51 1252.53C1899.54 1229.36 1871.05 1212.43 1839.73 1203.31C1808.18 1194.33 1774.47 1196.94 1744.68 1210.68C1729.98 1217.65 1717.05 1227.87 1706.89 1240.58C1696.72 1253.28 1689.58 1268.14 1686.01 1284.01C1682.76 1299.97 1683.99 1316.51 1689.56 1331.82C1695.13 1347.12 1704.82 1360.58 1717.56 1370.71C1743.64 1390.27 1782.75 1390.73 1807.85 1370.06C1806.09 1384.34 1818.61 1397.57 1832.75 1400.24C1839.9 1401.13 1847.16 1400.55 1854.07 1398.53C1860.99 1396.51 1867.42 1393.1 1872.97 1388.51C1884.01 1379.33 1894.37 1369.37 1904 1358.72C1907.85 1355 1911.82 1351.42 1915.87 1347.96C1923.46 1364.4 1934.78 1378.85 1948.92 1390.16C1963.07 1401.48 1979.64 1409.35 1997.35 1413.15C1986.14 1425.34 1987.12 1444.44 1991.74 1460.35C1996.37 1476.25 2003.87 1491.77 2003.54 1508.33C2003.54 1522.28 1997.35 1535.38 1994.68 1549.07C1991.05 1568.24 1993.82 1588.08 2002.57 1605.52C2005.89 1612.04 2010 1621.56 2013.71 1628.01C2020.23 1639.61 2020.23 1639.61 2029.88 1642.55C2049.83 1648.74 2084.25 1576.32 2093.11 1547.57C2100.54 1523.58 2103.41 1480.56 2112.08 1457.02C2127.33 1414.78 2117.88 1373.32 2103.28 1336.03Z" fill="#263238"/>
<path d="M2116.71 1426.91C2116.35 1427.68 2115.89 1428.41 2115.34 1429.06C2113.82 1430.96 2111.96 1432.58 2109.86 1433.82C2105.93 1436.11 2101.5 1437.41 2096.95 1437.58C2092.4 1437.75 2087.88 1436.79 2083.79 1434.79C2081.01 1433.42 2078.53 1431.52 2076.49 1429.19C2074.41 1426.66 2072.7 1423.85 2071.4 1420.84C2069.07 1414.39 2066.1 1408.19 2062.54 1402.33C2060.23 1399.5 2057.38 1397.15 2054.16 1395.43C2050.93 1393.71 2047.4 1392.64 2043.76 1392.29C2035.63 1391.41 2027.44 1391.06 2019.25 1391.25C2010.85 1391.08 2002.49 1389.92 1994.35 1387.79C1986.82 1385.68 1979.52 1382.8 1972.58 1379.19C1960.85 1373.05 1950.36 1364.81 1941.61 1354.87C1935.67 1348.25 1930.71 1340.81 1926.88 1332.78C1925.81 1330.66 1924.88 1328.49 1924.08 1326.26C1923.71 1325.47 1923.47 1324.64 1923.36 1323.78C1928.75 1334.43 1935.47 1344.36 1943.37 1353.31C1952.16 1362.77 1962.53 1370.62 1974.01 1376.52C1980.8 1379.89 1987.9 1382.62 1995.2 1384.66C2003.09 1386.66 2011.18 1387.76 2019.32 1387.92C2027.66 1387.72 2036 1388.12 2044.28 1389.1C2048.32 1389.53 2052.23 1390.77 2055.79 1392.72C2059.35 1394.68 2062.49 1397.33 2065.01 1400.51C2068.7 1406.68 2071.69 1413.24 2073.95 1420.06C2075.11 1422.86 2076.64 1425.49 2078.51 1427.88C2080.34 1430.01 2082.55 1431.78 2085.03 1433.1C2088.82 1435.03 2093.02 1436.04 2097.28 1436.04C2101.54 1436.04 2105.74 1435.03 2109.54 1433.1C2112.17 1431.34 2114.58 1429.26 2116.71 1426.91Z" fill="#455A64"/>
<path d="M2101.65 1466.02C2101.65 1466.02 2100.48 1467.78 2097.54 1470C2093.39 1473.12 2088.71 1475.46 2083.72 1476.91C2076.25 1479.16 2068.32 1479.43 2060.71 1477.69C2051.32 1475.56 2042.79 1470.63 2036.27 1463.54C2030.42 1456.23 2025.47 1448.24 2021.53 1439.75C2018.33 1433.06 2013.9 1427.03 2008.5 1421.95C2004.92 1418.57 2000.58 1416.09 1995.85 1414.72C1994 1414.46 1992.18 1414.09 1990.38 1413.61C1992.26 1413.15 1994.23 1413.15 1996.11 1413.61C2001.27 1414.47 2006.09 1416.72 2010.06 1420.13C2015.89 1425.21 2020.69 1431.36 2024.21 1438.25C2028.13 1446.45 2032.99 1454.17 2038.68 1461.26C2044.74 1467.86 2052.6 1472.53 2061.3 1474.69C2068.4 1476.46 2075.84 1476.46 2082.94 1474.69C2089.56 1472.72 2095.86 1469.79 2101.65 1466.02Z" fill="#455A64"/>
<path d="M2358.55 1352.46C2358.5 1353.73 2358.19 1354.97 2357.64 1356.11C2356.33 1359.58 2354.34 1362.75 2351.78 1365.43C2347.71 1369.71 2342.65 1372.91 2337.04 1374.76C2329.64 1377.36 2321.62 1377.68 2314.03 1375.67C2296.89 1371.5 2280.79 1356.11 2270.94 1335.77C2261.1 1315.44 2254.91 1291.25 2239.85 1270.59C2232.61 1260.62 2222.72 1252.9 2211.3 1248.29C2200.59 1244.17 2189.1 1242.5 2177.66 1243.4C2158.17 1245.1 2139.81 1253.27 2125.51 1266.61C2115.66 1275.5 2107.3 1285.91 2100.74 1297.44C2096.04 1305.59 2094.22 1310.48 2093.76 1310.48C2093.98 1309.21 2094.39 1307.97 2095 1306.83C2096.37 1303.47 2097.91 1300.18 2099.63 1296.99C2105.83 1285.04 2114.03 1274.23 2123.88 1265.05C2138.49 1250.98 2157.46 1242.31 2177.66 1240.47C2189.6 1239.43 2201.61 1241.13 2212.79 1245.42C2224.82 1250.17 2235.23 1258.27 2242.78 1268.76C2258.43 1290.21 2263.9 1314.91 2274.01 1334.47C2284.11 1354.03 2298.78 1369.22 2314.88 1373.58C2322.04 1375.63 2329.64 1375.49 2336.72 1373.19C2341.76 1371.78 2346.4 1369.19 2350.24 1365.63C2354.08 1362.07 2357.02 1357.64 2358.82 1352.72L2358.55 1352.46Z" fill="#455A64"/>
<path d="M2356.08 1398.22C2356.08 1398.22 2355.36 1399.27 2353.73 1401.03C2351.22 1403.52 2348.54 1405.82 2345.71 1407.94C2341.23 1411.28 2336.32 1414.02 2331.11 1416.08C2324.15 1418.91 2316.63 1420.05 2309.14 1419.41C2299.53 1417.86 2290.32 1414.4 2282.07 1409.22C2273.81 1404.05 2266.68 1397.27 2261.1 1389.29C2254.45 1379.98 2249.31 1369.69 2245.85 1358.78C2241.93 1347.7 2238.87 1335.97 2234.7 1324.37C2230.96 1313.06 2225.25 1302.51 2217.81 1293.21C2210.82 1284.71 2201.37 1278.58 2190.76 1275.67C2172.41 1271.18 2153.04 1273.65 2136.4 1282.58C2125.13 1288.56 2114.68 1295.97 2105.3 1304.61L2097.54 1311.65C2096.71 1312.56 2095.76 1313.37 2094.74 1314.07C2095.38 1313 2096.17 1312.04 2097.09 1311.2C2098.65 1309.37 2101.06 1306.83 2104.39 1303.64C2113.53 1294.49 2123.94 1286.7 2135.29 1280.49C2152.42 1270.91 2172.52 1268.12 2191.61 1272.67C2202.86 1275.68 2212.91 1282.1 2220.36 1291.05C2228.06 1300.64 2234 1311.53 2237.89 1323.19C2242.13 1334.99 2245.19 1346.73 2248.97 1357.74C2252.33 1368.31 2257.25 1378.3 2263.58 1387.4C2274.27 1402.92 2290.68 1413.57 2309.21 1417C2316.34 1417.75 2323.55 1416.84 2330.26 1414.32C2335.38 1412.43 2340.24 1409.92 2344.73 1406.83C2352.43 1401.74 2355.88 1398.03 2356.08 1398.22Z" fill="#455A64"/>
<path d="M1652.51 2368.41L1663.52 2395.92L1641.82 2646.83H2195.59L2170.88 2571.8L2239.72 2575.32C2345.91 2580.66 2432.67 2485.81 2412.01 2381.51C2411.36 2378.39 2410.7 2375 2409.86 2372.13C2375.5 2237.91 2328.76 2057.47 2312.53 2004.21C2285.61 1916.14 2225.7 1874.29 2225.7 1874.29H2224.79C2141.94 1806.69 2029.23 1800.69 2029.23 1800.69L1987.7 1828.59C1967.23 1842.31 1943.59 1850.57 1919.03 1852.58C1894.46 1854.6 1869.79 1850.32 1847.35 1840.13C1839.15 1836.39 1831.86 1830.94 1825.95 1824.13C1820.05 1817.33 1815.67 1809.34 1813.13 1800.69C1764.37 1805.81 1716.66 1818.24 1671.61 1837.59C1646.01 1849.44 1623.09 1866.4 1604.27 1887.41C1585.46 1908.43 1571.12 1933.07 1562.16 1959.82L1417.51 2383.54L1171.23 2350.22L1118.55 2494.03L1368.09 2553.48C1412.83 2566.82 1460.8 2564.38 1503.96 2546.58C1547.11 2528.78 1582.85 2496.7 1605.18 2455.7L1652.51 2368.67M2113.12 2402.57C2113.12 2402.57 2136.79 2311.83 2151.19 2263L2186.13 2399.9L2113.12 2402.57Z" fill="#FF5463"/>
<path d="M2301.45 2576.75H2298.58H2290.24H2257.64L2135.68 2577.21L1711.24 2577.79H1709.81V2576.16C1711.96 2524.41 1714.3 2470.1 1716.65 2414.04V2412.48H1718.22L1875.91 2407.52L2186.13 2398.2L2184.63 2400.22C2173.03 2357.92 2163.58 2316.72 2154.45 2277.41C2145.33 2238.1 2137.18 2200.42 2129.16 2164.96C2125.33 2147.23 2121.58 2130.02 2117.88 2113.33C2113.85 2097.31 2110.89 2081.05 2109.02 2064.64C2107.62 2049.46 2107.62 2034.18 2109.02 2019.01C2110.17 2005.04 2112.7 1991.21 2116.58 1977.74C2122.94 1954.58 2135.73 1933.7 2153.47 1917.51C2166.89 1905.69 2183.44 1897.99 2201.13 1895.34C2212.1 1893.58 2223.33 1894.2 2234.05 1897.17C2236.78 1897.96 2239.46 1898.94 2242.06 1900.1C2243.82 1900.82 2244.67 1901.28 2244.67 1901.28C2244.67 1901.28 2241.09 1899.65 2233.92 1897.69C2223.27 1894.95 2212.16 1894.48 2201.32 1896.32C2183.91 1899.16 2167.67 1906.91 2154.52 1918.68C2137.14 1934.76 2124.64 1955.41 2118.47 1978.26C2114.71 1991.64 2112.27 2005.35 2111.17 2019.2C2109.75 2034.38 2109.75 2049.66 2111.17 2064.83C2113.08 2081.14 2116.08 2097.3 2120.16 2113.2C2123.88 2129.82 2127.66 2147.03 2131.64 2164.77C2139.65 2200.23 2148.19 2237.78 2157.12 2277.08C2166.06 2316.39 2175.83 2357.59 2187.5 2399.77L2188.02 2401.72H2186L1876.1 2411.24L1718.35 2416.19L1719.98 2414.56C1717.56 2470.63 1715.22 2524.93 1713 2576.69L1711.37 2574.99L2135.81 2575.64L2257.77 2576.1H2290.37H2298.71C2299.64 2576.26 2300.55 2576.48 2301.45 2576.75Z" fill="#263238"/>
<path d="M1683.21 1999.58C1683.5 2000.91 1683.61 2002.27 1683.54 2003.62C1683.54 2006.29 1683.54 2010.14 1683.54 2015.29C1682.63 2029.59 1680.11 2043.73 1676.04 2057.47C1669.88 2077.72 1662.65 2097.63 1654.4 2117.11C1644.15 2140.77 1636.16 2165.35 1630.54 2190.51C1625.95 2215.85 1625.81 2241.79 1630.15 2267.18C1633.65 2287.94 1638.66 2308.42 1645.14 2328.45C1650.62 2345.6 1655.51 2359.35 1658.9 2368.87L1662.68 2379.82C1663.21 2381.07 1663.58 2382.38 1663.78 2383.73C1663.05 2382.59 1662.46 2381.36 1662.02 2380.08C1660.92 2377.28 1659.42 2373.56 1657.66 2369.32C1653.88 2359.94 1648.66 2346.31 1642.86 2329.17C1635.99 2309.1 1630.72 2288.53 1627.08 2267.63C1622.45 2241.92 1622.45 2215.58 1627.08 2189.86C1632.69 2164.5 1640.75 2139.74 1651.14 2115.94C1660.26 2093.91 1668.28 2074.02 1673.37 2056.81C1677.62 2043.28 1680.48 2029.34 1681.91 2015.23C1682.95 2005.19 1682.88 1999.58 1683.21 1999.58Z" fill="#263238"/>
<path d="M2186.13 2399.96C2189.85 2398.63 2193.81 2398.12 2197.74 2398.46C2207.24 2398.71 2216.59 2400.93 2225.18 2404.98C2234 2408.78 2241.57 2414.99 2247.02 2422.91C2249.45 2426.05 2250.92 2429.83 2251.26 2433.79C2250.67 2433.79 2249.3 2429.75 2245.06 2424.28C2239.37 2417.23 2232.06 2411.66 2223.75 2408.05C2215.5 2404.31 2206.69 2401.95 2197.67 2401.07C2193.8 2400.96 2189.95 2400.59 2186.13 2399.96Z" fill="#263238"/>
<path d="M2137.37 1825.2C2140.93 1826.22 2144.4 1827.53 2147.74 1829.11C2151.06 1830.48 2155.1 1832.11 2159.73 1834.2L2175.18 1841.76C2180.92 1844.56 2186.98 1848.28 2193.56 1851.73C2200.15 1855.19 2206.6 1859.82 2213.9 1864.38C2229.1 1874.7 2243.39 1886.3 2256.6 1899.06C2280.71 1922.37 2299.14 1950.92 2310.45 1982.5C2312.43 1987.91 2314.09 1993.44 2315.4 1999.06C2316.57 2004.01 2317.68 2008.18 2318.14 2012.1C2318.87 2015.73 2319.35 2019.41 2319.57 2023.11C2318.35 2019.61 2317.43 2016.02 2316.83 2012.36C2316.25 2008.84 2314.94 2004.73 2313.58 1999.84C2312.21 1994.95 2310.38 1989.61 2308.23 1983.61C2296.38 1952.75 2277.96 1924.84 2254.25 1901.8C2241.19 1889.17 2227.1 1877.63 2212.14 1867.31C2205.17 1862.75 2198.52 1858.25 2192.13 1854.28C2185.74 1850.3 2179.75 1846.91 2174.07 1843.98L2158.89 1836.02L2147.22 1830.42C2143.81 1828.92 2140.52 1827.18 2137.37 1825.2Z" fill="#263238"/>
<g opacity="0.3">
<path d="M2115.8 2098.34C2115.8 2098.34 2060.78 2341.29 2061.62 2365.09C2061.78 2377.59 2063.69 2390.01 2067.3 2401.98L2112.93 2402.37L2113.32 2397.88L2151.78 2260.4L2115.8 2098.34Z" fill="black"/>
</g>
<path d="M1813.46 2086.08C1813.46 2086.48 1807.65 2088.76 1798.4 2095.6C1785.51 2105.44 1775.71 2118.76 1770.17 2134C1766.46 2144.44 1764.93 2155.53 1765.67 2166.59C1766.38 2179.31 1770.13 2191.68 1776.62 2202.64C1783.69 2214.8 1793.8 2224.9 1805.96 2231.97C1812.31 2235.78 1819.19 2238.63 1826.36 2240.45C1833.74 2242.4 1841.36 2243.28 1848.98 2243.06C1856.61 2242.87 1864.18 2241.64 1871.47 2239.41C1878.51 2237.1 1885.23 2233.92 1891.48 2229.95C1907.42 2219.49 1919.21 2203.81 1924.85 2185.6C1930.48 2167.39 1929.61 2147.79 1922.38 2130.15C1916.11 2115.19 1905.66 2102.35 1892.27 2093.19C1882.75 2086.67 1876.56 2084.78 1876.75 2084.39C1878.27 2084.8 1879.75 2085.33 1881.19 2085.95C1885.31 2087.65 1889.28 2089.7 1893.05 2092.08C1904.87 2099.68 1914.59 2110.14 1921.3 2122.5C1928.01 2134.85 1931.5 2148.69 1931.44 2162.74C1931.32 2175.93 1928.15 2188.92 1922.19 2200.68C1915.52 2213.7 1905.59 2224.78 1893.38 2232.82C1886.88 2236.99 1879.89 2240.34 1872.58 2242.8C1864.96 2245.11 1857.07 2246.38 1849.11 2246.58C1833.39 2246.98 1817.87 2242.96 1804.33 2234.97C1791.71 2227.58 1781.23 2217.02 1773.95 2204.33C1763.55 2186.36 1760.22 2165.16 1764.6 2144.86C1768.99 2124.56 1780.78 2106.63 1797.68 2094.56C1801.33 2092.06 1805.19 2089.88 1809.22 2088.04C1810.59 2087.3 1812 2086.65 1813.46 2086.08Z" fill="white"/>
<path d="M1847.03 2071.22C1848.71 2091.12 1849.27 2111.1 1848.72 2131.06C1849.27 2151.03 1848.71 2171.01 1847.03 2190.91C1845.31 2171.01 1844.74 2151.03 1845.33 2131.06C1844.74 2111.1 1845.31 2091.12 1847.03 2071.22Z" fill="white"/>
<path d="M1636.86 2411.24L1601.01 2396.7C1601.01 2396.7 1559.35 2326.04 1550.81 2329.43C1542.27 2332.82 1541.04 2354.4 1557.99 2386.93L1510.85 2376.3C1510.85 2376.3 1413.07 2428.45 1417.7 2434.38C1422.33 2440.31 1431.52 2454.72 1452.84 2442.33C1474.15 2429.95 1502.05 2415.15 1502.05 2415.15L1557.14 2427.6L1487.71 2440.64L1425.33 2504.07C1425.33 2504.07 1447.82 2519.06 1465.48 2500.87L1638.23 2528.06H1711.37L1715.28 2431.38L1636.86 2411.24Z" fill="#FFBE9D"/>
<path d="M1465.48 2500.42C1466.27 2500.81 1469.13 2495.59 1474.94 2488.55C1478.34 2484.53 1482.34 2481.06 1486.8 2478.25C1492.45 2475.22 1498.62 2473.25 1504.99 2472.45C1533.21 2467.5 1555.96 2462.28 1555.7 2460.85C1555.44 2459.41 1532.37 2462.22 1504.01 2467.37C1496.96 2468.24 1490.18 2470.62 1484.13 2474.34C1479.35 2477.59 1475.22 2481.71 1471.94 2486.47C1468.63 2490.49 1466.4 2495.29 1465.48 2500.42Z" fill="#EB996E"/>
<path d="M1492.6 2505.76C1493.25 2505.76 1493.58 2502.18 1498.27 2500.87C1502.97 2499.57 1510.85 2498.4 1518.87 2497.09C1535.17 2494.48 1548.66 2493.9 1548.73 2492.33C1548.79 2490.77 1534.97 2489.14 1518.09 2491.81C1510.8 2492.78 1503.66 2494.66 1496.84 2497.42C1495.65 2497.92 1494.6 2498.69 1493.75 2499.66C1492.91 2500.63 1492.29 2501.78 1491.95 2503.02C1491.62 2504.91 1492.28 2505.83 1492.6 2505.76Z" fill="#EB996E"/>
<path d="M1632.1 2409.15C1626.23 2407.95 1620.46 2406.31 1614.83 2404.26C1604.27 2401.01 1589.6 2396.9 1573.24 2392.79L1531.32 2382.23C1525.45 2381.05 1519.7 2379.28 1514.18 2376.95C1520.17 2377.42 1526.1 2378.43 1531.91 2379.95C1542.73 2382.17 1557.98 2385.36 1574.09 2389.53C1588.13 2392.97 1601.99 2397.12 1615.61 2401.98C1621.37 2403.72 1626.9 2406.13 1632.1 2409.15Z" fill="#EB996E"/>
<path d="M2233.33 590.809C2233.04 588.474 2232.91 586.122 2232.94 583.769C2232.94 578.902 2232.81 572.383 2232.55 564.213C2232.55 547.394 2232.16 524.122 2231.83 496.352L2233.26 497.852H2139C2139 498.243 2142.26 494.657 2140.7 496.157V521.384C2140.7 529.728 2140.7 537.877 2140.7 545.765C2140.7 561.605 2140.7 576.533 2140.7 590.223L2139.2 588.788L2207.12 589.505L2226.68 589.897C2231.18 589.897 2233.66 589.897 2233.79 590.223C2231.63 590.531 2229.45 590.662 2227.27 590.614H2208.3L2139.46 591.396H2138.02V589.897C2138.02 576.207 2138.02 561.279 2138.02 545.439C2138.02 537.551 2138.02 529.402 2138.02 521.058V495.831C2136.53 497.395 2140.11 493.745 2139.72 494.136H2233.98H2235.48V495.57C2235.48 523.731 2234.89 547.329 2234.76 564.408C2234.76 572.231 2234.63 578.554 2234.37 583.378C2234.17 585.874 2233.82 588.355 2233.33 590.809Z" fill="#263238"/>
<path d="M2233.33 497.526C2233.98 498.178 2213.45 519.69 2187.7 545.569C2172.4 561.588 2156.3 576.818 2139.46 591.201C2153.84 574.419 2169.07 558.383 2185.09 543.157C2200.35 527.101 2216.45 511.869 2233.33 497.526Z" fill="#263238"/>
<path d="M2231.83 590.223C2215.29 576.054 2199.54 560.995 2184.63 545.113C2168.89 530.038 2153.94 514.154 2139.85 497.526C2156.34 511.768 2172.1 526.846 2187.05 542.701C2202.76 557.785 2217.7 573.645 2231.83 590.223Z" fill="#263238"/>
<path d="M2791.47 1139.36C2792.88 1137.24 2794.57 1135.31 2796.49 1133.63C2800.46 1129.72 2805.35 1124.76 2811.09 1119.03C2823.54 1106.77 2840.94 1090.02 2860.24 1071.63L2860.7 1071.24V1073.72C2841.14 1055.66 2823.73 1039.24 2811.22 1027.24L2796.55 1012.9C2794.61 1011.26 2792.91 1009.38 2791.47 1007.29C2793.6 1008.63 2795.59 1010.18 2797.4 1011.92L2812.85 1025.48C2825.88 1037.02 2843.55 1053.19 2863.04 1071.11L2864.35 1072.35L2863.04 1073.59L2862.59 1074.05C2843.03 1092.36 2825.62 1108.86 2812.78 1120.65L2797.4 1134.54C2795.61 1136.37 2793.62 1137.99 2791.47 1139.36Z" fill="#263238"/>
<path d="M2641.14 1007.29C2639.73 1009.41 2638.04 1011.34 2636.12 1013.03L2621.46 1027.63C2609.01 1039.89 2591.67 1056.64 2572.37 1075.02L2571.91 1075.41V1072.94C2591.47 1090.99 2608.81 1107.42 2621.39 1119.42L2636.06 1133.76C2637.99 1135.39 2639.7 1137.28 2641.14 1139.36C2638.99 1138.06 2637 1136.51 2635.21 1134.74C2630.97 1131.08 2625.82 1126.52 2619.76 1121.18C2606.72 1109.64 2589.06 1093.47 2569.57 1075.54L2568.26 1074.31L2569.57 1073.07L2570.02 1072.61C2589.58 1054.29 2606.99 1037.8 2619.83 1026L2635.21 1012.12C2637.02 1010.32 2639.01 1008.7 2641.14 1007.29Z" fill="#263238"/>
<path d="M2679.73 1170.46C2678.89 1170.46 2694.66 1125.94 2714.94 1071.83C2735.21 1017.72 2752.48 974.048 2753.4 974.374C2754.31 974.7 2738.47 1018.9 2718.13 1073C2697.79 1127.11 2680.58 1170.78 2679.73 1170.46Z" fill="#263238"/>
<path d="M2962.19 1264.98C2962.19 1264.98 2962.19 1262.37 2962.19 1257.55C2962.19 1252.72 2962.19 1245.55 2962.19 1236.3C2962.19 1217.65 2962.19 1190.67 2961.8 1155.86C2961.8 1086.56 2961.34 987.607 2961.08 868.248L2962.45 869.617L2473.55 869.943L2475.24 868.248C2475.24 1011.66 2475.24 1147.06 2475.24 1264.98L2473.68 1263.42L2826.67 1264.2L2926.73 1264.59H2953.33H2960.17H2962.52H2953.65H2927.58L2827.84 1264.98L2473.87 1265.76H2472.37V1264.26C2472.37 1146.34 2472.37 1010.94 2472.37 867.531V866.292H2474.13H2963.04H2964.47V867.727C2964.47 987.411 2963.95 1086.76 2963.76 1156.25C2963.76 1190.73 2963.76 1217.78 2963.37 1236.36C2963.37 1245.49 2963.37 1252.53 2963.37 1257.35C2963.37 1262.18 2962.19 1264.98 2962.19 1264.98Z" fill="#263238"/>
<path d="M2966.04 927.113C2966.04 928.025 2855.68 928.808 2719.63 928.808C2583.58 928.808 2473.15 928.025 2473.15 927.113C2473.15 926.2 2583.45 925.418 2719.63 925.418C2855.81 925.418 2966.04 926.135 2966.04 927.113Z" fill="#263238"/>
<path d="M2513.25 898.104C2513.25 899.394 2512.86 900.654 2512.15 901.726C2511.43 902.798 2510.41 903.633 2509.22 904.127C2508.03 904.62 2506.72 904.749 2505.45 904.498C2504.19 904.246 2503.03 903.625 2502.12 902.714C2501.21 901.802 2500.58 900.64 2500.33 899.376C2500.08 898.111 2500.21 896.801 2500.7 895.61C2501.2 894.418 2502.03 893.4 2503.1 892.684C2504.18 891.968 2505.44 891.585 2506.73 891.585C2508.46 891.585 2510.11 892.272 2511.34 893.495C2512.56 894.717 2513.25 896.375 2513.25 898.104Z" fill="#263238"/>
<path d="M2537.23 898.104C2537.23 899.394 2536.85 900.654 2536.14 901.726C2535.42 902.798 2534.4 903.633 2533.21 904.127C2532.02 904.62 2530.71 904.749 2529.44 904.498C2528.18 904.246 2527.02 903.625 2526.11 902.714C2525.19 901.802 2524.57 900.64 2524.32 899.376C2524.07 898.111 2524.2 896.801 2524.69 895.61C2525.19 894.418 2526.02 893.4 2527.09 892.684C2528.17 891.968 2529.43 891.585 2530.71 891.585C2532.44 891.585 2534.1 892.272 2535.32 893.495C2536.55 894.717 2537.23 896.375 2537.23 898.104Z" fill="#263238"/>
<path d="M2561.22 898.104C2561.22 899.394 2560.84 900.654 2560.12 901.726C2559.41 902.798 2558.39 903.633 2557.2 904.127C2556.01 904.62 2554.7 904.749 2553.43 904.498C2552.17 904.246 2551.01 903.625 2550.09 902.714C2549.18 901.802 2548.56 900.64 2548.31 899.376C2548.06 898.111 2548.19 896.801 2548.68 895.61C2549.18 894.418 2550.01 893.4 2551.08 892.684C2552.15 891.968 2553.41 891.585 2554.7 891.585C2556.43 891.585 2558.09 892.272 2559.31 893.495C2560.54 894.717 2561.22 896.375 2561.22 898.104Z" fill="#263238"/>
<path d="M1967.88 268.587H1581.65V543.94H1967.88V268.587Z" fill="#455A64"/>
<path d="M1970.95 309.46C1970.95 310.372 1883.73 311.154 1776.23 311.154C1668.74 311.154 1581.52 310.372 1581.52 309.46C1581.52 308.547 1668.67 307.765 1776.23 307.765C1883.79 307.765 1970.95 308.482 1970.95 309.46Z" fill="white"/>
<path d="M1613.2 289.316C1613.35 290.382 1613.16 291.467 1612.67 292.426C1612.19 293.385 1611.42 294.172 1610.47 294.682C1609.52 295.192 1608.44 295.401 1607.38 295.28C1606.31 295.16 1605.3 294.716 1604.49 294.007C1603.68 293.299 1603.11 292.36 1602.85 291.317C1602.58 290.273 1602.65 289.175 1603.03 288.169C1603.41 287.162 1604.09 286.296 1604.97 285.686C1605.86 285.075 1606.91 284.75 1607.98 284.753C1609.28 284.681 1610.55 285.119 1611.52 285.971C1612.5 286.824 1613.1 288.025 1613.2 289.316Z" fill="white"/>
<path d="M1632.17 289.316C1632.31 290.382 1632.13 291.467 1631.64 292.426C1631.16 293.385 1630.39 294.172 1629.44 294.682C1628.49 295.192 1627.41 295.401 1626.35 295.28C1625.28 295.16 1624.27 294.716 1623.46 294.007C1622.65 293.299 1622.08 292.36 1621.82 291.317C1621.55 290.273 1621.62 289.175 1622 288.169C1622.38 287.162 1623.06 286.296 1623.94 285.686C1624.83 285.075 1625.88 284.75 1626.95 284.753C1628.25 284.681 1629.52 285.119 1630.49 285.971C1631.47 286.824 1632.07 288.025 1632.17 289.316Z" fill="white"/>
<path d="M1645.92 293.88C1648.8 293.88 1651.14 291.837 1651.14 289.317C1651.14 286.796 1648.8 284.753 1645.92 284.753C1643.04 284.753 1640.71 286.796 1640.71 289.317C1640.71 291.837 1643.04 293.88 1645.92 293.88Z" fill="white"/>
<path d="M1724.54 419.236C1724.54 435.793 1712.54 445.767 1692.79 445.767H1671.93V470.278H1663.72V392.639H1692.79C1712.54 392.639 1724.54 402.613 1724.54 419.236ZM1716.33 419.236C1716.33 406.85 1708.11 399.679 1692.6 399.679H1671.93V438.466H1692.6C1708.11 438.531 1716.33 431.426 1716.33 419.236Z" fill="white"/>
<path d="M1807.13 392.639V470.278H1799.05V434.424H1750.42V470.278H1742.4V392.639H1750.61V427.254H1799.24V392.639H1807.13Z" fill="white"/>
<path d="M1893.11 419.236C1893.11 435.793 1881.19 445.767 1861.43 445.767H1840.57V470.278H1832.36V392.639H1861.43C1881.19 392.639 1893.11 402.613 1893.11 419.236ZM1884.97 419.236C1884.97 406.85 1876.75 399.679 1861.24 399.679H1840.57V438.466H1861.24C1876.75 438.531 1884.97 431.426 1884.97 419.236Z" fill="white"/>
<path d="M1188.31 859.774L1193.39 854.168C1196.06 858.568 1199.81 862.213 1204.28 864.758C1208.75 867.302 1213.8 868.661 1218.94 868.704C1234.26 868.704 1241.82 859.969 1241.82 841.521V767.598H1199.32V760.037H1250.23V841.326C1250.23 864.532 1239.48 876.071 1218.94 876.071C1212.88 876.151 1206.89 874.7 1201.53 871.852C1196.18 869.003 1191.63 864.849 1188.31 859.774Z" fill="#FF5463"/>
<path d="M1274.35 864.859L1278.13 858.34C1286.98 865.158 1297.86 868.808 1309.03 868.705C1327.16 868.705 1334.39 862.186 1334.39 852.603C1334.39 827.571 1277.48 846.085 1277.48 812.252C1277.48 799.215 1288.3 788.719 1310.08 788.719C1320.51 788.537 1330.77 791.464 1339.54 797.129L1335.76 803.647C1328.1 798.384 1318.98 795.67 1309.69 795.89C1292.93 795.89 1285.5 802.8 1285.5 812.057C1285.5 838.132 1342.47 819.618 1342.47 852.343C1342.47 866.358 1330.41 875.875 1308.51 875.875C1296.2 876.228 1284.14 872.339 1274.35 864.859Z" fill="#FF5463"/>
<path d="M1417.77 936.435C1417.77 936.435 1417.77 934.609 1417.77 931.154C1417.77 927.699 1417.77 922.615 1417.77 916.226C1417.77 903.189 1417.77 883.959 1417.38 859.774C1417.38 811.209 1416.98 742.11 1416.66 658.996L1418.09 660.43H1119.08C1118.69 660.821 1122.27 657.236 1120.77 658.8V733.245C1120.77 757.69 1120.77 781.549 1120.77 804.951C1120.77 851.56 1120.77 895.627 1120.77 936.239L1119.27 934.74L1335.37 935.457L1396.45 935.848H1412.62H1416.46H1417.96H1412.62H1396.71L1336.02 936.239L1118.95 936.956H1117.45V935.457C1117.45 894.845 1117.45 850.713 1117.45 804.169C1117.45 780.897 1117.45 757.038 1117.45 732.462V659.126L1119.14 657.366H1418.16H1419.59V658.8C1419.59 742.306 1419.07 811.731 1418.87 860.491C1418.87 884.545 1418.87 903.515 1418.48 916.618C1418.48 923.136 1418.48 927.83 1418.48 931.285C1418.48 934.74 1417.77 936.435 1417.77 936.435Z" fill="#FF5463"/>
<path d="M1417.11 700.195C1417.11 701.107 1350.3 701.89 1267.83 701.89C1185.37 701.89 1118.55 701.107 1118.55 700.195C1118.55 699.282 1185.37 698.435 1267.83 698.435C1350.3 698.435 1417.11 699.217 1417.11 700.195Z" fill="#FF5463"/>
<path d="M1145.28 684.549C1148.16 684.549 1150.5 682.477 1150.5 679.921C1150.5 677.365 1148.16 675.292 1145.28 675.292C1142.4 675.292 1140.07 677.365 1140.07 679.921C1140.07 682.477 1142.4 684.549 1145.28 684.549Z" fill="#FF5463"/>
<path d="M1169.6 679.921C1169.73 680.986 1169.53 682.066 1169.04 683.017C1168.54 683.969 1167.77 684.746 1166.82 685.246C1165.87 685.745 1164.79 685.944 1163.72 685.814C1162.66 685.685 1161.66 685.234 1160.85 684.522C1160.05 683.81 1159.48 682.869 1159.23 681.827C1158.97 680.784 1159.04 679.689 1159.43 678.687C1159.81 677.684 1160.49 676.822 1161.37 676.216C1162.26 675.61 1163.31 675.288 1164.38 675.293C1165.69 675.221 1166.97 675.667 1167.94 676.534C1168.92 677.401 1169.51 678.618 1169.6 679.921Z" fill="#FF5463"/>
<path d="M1188.7 679.921C1188.83 680.986 1188.63 682.066 1188.14 683.017C1187.64 683.969 1186.87 684.746 1185.92 685.246C1184.97 685.745 1183.89 685.944 1182.82 685.814C1181.76 685.685 1180.75 685.234 1179.95 684.522C1179.15 683.81 1178.58 682.869 1178.33 681.827C1178.07 680.784 1178.14 679.689 1178.53 678.687C1178.91 677.684 1179.59 676.822 1180.47 676.216C1181.36 675.61 1182.41 675.288 1183.48 675.293C1184.79 675.221 1186.06 675.667 1187.04 676.534C1188.02 677.401 1188.61 678.618 1188.7 679.921Z" fill="#FF5463"/>
<path d="M2508.16 400.722C2508.05 394.174 2509.27 387.672 2511.76 381.613C2514.25 375.554 2517.94 370.066 2522.62 365.484C2527.3 360.902 2532.87 357.322 2538.98 354.964C2545.09 352.605 2551.61 351.517 2558.16 351.766C2564.49 351.511 2570.8 352.566 2576.7 354.866C2582.6 357.166 2587.96 360.66 2592.45 365.13L2588.08 369.693C2584.18 365.888 2579.54 362.915 2574.45 360.954C2569.37 358.993 2563.93 358.085 2558.49 358.285C2552.72 357.965 2546.96 358.824 2541.54 360.809C2536.12 362.794 2531.16 365.863 2526.97 369.829C2522.78 373.795 2519.44 378.575 2517.16 383.875C2514.87 389.176 2513.7 394.886 2513.7 400.657C2513.7 406.428 2514.87 412.138 2517.16 417.439C2519.44 422.739 2522.78 427.519 2526.97 431.485C2531.16 435.451 2536.12 438.52 2541.54 440.505C2546.96 442.49 2552.72 443.349 2558.49 443.029C2563.94 443.208 2569.38 442.278 2574.47 440.295C2579.55 438.311 2584.18 435.316 2588.08 431.491L2592.45 436.054C2587.97 440.541 2582.61 444.055 2576.71 446.377C2570.81 448.699 2564.5 449.778 2558.16 449.548C2551.63 449.796 2545.11 448.712 2539.01 446.361C2532.91 444.011 2527.35 440.443 2522.67 435.875C2517.99 431.307 2514.3 425.835 2511.8 419.791C2509.31 413.748 2508.07 407.26 2508.16 400.722Z" fill="#FF5463"/>
<path d="M2605.68 436.51L2608.87 431.295C2617.54 439.254 2628.92 443.593 2640.69 443.42C2660.24 443.42 2668.52 435.011 2668.52 424.516C2668.52 395.572 2608.35 412.978 2608.35 377.385C2608.35 363.761 2618.78 351.766 2642.51 351.766C2652.85 351.711 2662.97 354.729 2671.59 360.436L2668.91 366.108C2661.12 360.801 2651.94 357.92 2642.51 357.829C2623.74 357.829 2615.33 366.499 2615.33 377.385C2615.33 406.328 2675.56 389.249 2675.56 424.255C2675.56 437.879 2664.68 449.743 2640.82 449.743C2627.82 450.113 2615.2 445.36 2605.68 436.51Z" fill="#FF5463"/>
<path d="M2689.58 436.511L2692.77 431.295C2701.41 439.289 2712.81 443.634 2724.58 443.42C2744.14 443.42 2752.42 435.011 2752.42 424.516C2752.42 395.573 2692.18 412.978 2692.18 377.385C2692.18 363.761 2702.68 351.767 2726.41 351.767C2736.72 351.724 2746.82 354.741 2755.42 360.437L2752.81 366.108C2745.11 360.862 2736.05 357.984 2726.73 357.829C2707.96 357.829 2699.55 366.499 2699.55 377.385C2699.55 406.329 2759.78 389.249 2759.78 424.255C2759.78 437.879 2748.9 449.744 2725.04 449.744C2711.93 450.2 2699.18 445.441 2689.58 436.511Z" fill="#FF5463"/>
<path d="M2841.53 526.078C2841.53 526.078 2841.53 524.253 2841.53 520.928C2841.53 517.604 2841.53 512.584 2841.53 506.261C2841.53 493.224 2841.53 474.515 2841.14 450.46C2841.14 402.287 2840.75 333.123 2840.42 248.379L2841.79 249.748L2412.27 250.074L2413.96 248.379C2413.96 346.877 2413.96 440.682 2413.96 525.817L2412.4 524.253L2721.39 525.035L2809.98 525.426H2833.64H2839.77C2840.49 525.369 2841.21 525.369 2841.92 525.426H2839.97H2834.03H2810.7L2722.43 525.817L2412.4 526.6H2410.83V525.035C2410.83 439.9 2410.83 346.095 2410.83 247.596V247.01H2412.53L2842.05 247.401H2843.42V248.705C2843.09 333.449 2842.83 403.004 2842.7 451.373C2842.7 475.297 2842.7 494.006 2842.7 506.848C2842.7 513.106 2842.7 517.93 2842.7 521.319C2841.66 524.448 2841.53 526.078 2841.53 526.078Z" fill="#FF5463"/>
<path d="M2841.53 289.838C2841.53 290.751 2745.31 291.533 2626.41 291.533C2507.51 291.533 2411.29 290.751 2411.29 289.838C2411.29 288.925 2507.51 288.143 2626.41 288.143C2745.31 288.143 2841.53 288.86 2841.53 289.838Z" fill="#FF5463"/>
<path d="M2443.75 269.565C2443.89 270.63 2443.69 271.71 2443.2 272.661C2442.7 273.613 2441.92 274.39 2440.97 274.89C2440.02 275.389 2438.94 275.588 2437.88 275.458C2436.81 275.329 2435.81 274.878 2435.01 274.166C2434.21 273.454 2433.64 272.514 2433.39 271.471C2433.13 270.428 2433.2 269.333 2433.58 268.331C2433.97 267.328 2434.65 266.466 2435.53 265.86C2436.42 265.254 2437.47 264.932 2438.54 264.937C2439.84 264.865 2441.12 265.311 2442.1 266.178C2443.08 267.045 2443.67 268.262 2443.75 269.565Z" fill="#FF5463"/>
<path d="M2462.85 269.565C2462.99 270.63 2462.79 271.71 2462.3 272.661C2461.8 273.613 2461.02 274.39 2460.07 274.89C2459.12 275.389 2458.04 275.588 2456.98 275.458C2455.91 275.329 2454.91 274.878 2454.11 274.166C2453.31 273.454 2452.74 272.514 2452.49 271.471C2452.23 270.428 2452.3 269.333 2452.68 268.331C2453.07 267.328 2453.75 266.466 2454.63 265.86C2455.52 265.254 2456.57 264.932 2457.64 264.937C2458.94 264.865 2460.22 265.311 2461.2 266.178C2462.18 267.045 2462.77 268.262 2462.85 269.565Z" fill="#FF5463"/>
<path d="M2481.96 269.565C2482.09 270.63 2481.89 271.71 2481.4 272.661C2480.9 273.613 2480.12 274.39 2479.17 274.89C2478.22 275.389 2477.14 275.588 2476.08 275.458C2475.01 275.329 2474.01 274.878 2473.21 274.166C2472.41 273.454 2471.84 272.514 2471.59 271.471C2471.33 270.428 2471.4 269.333 2471.78 268.331C2472.17 267.328 2472.85 266.466 2473.73 265.86C2474.62 265.254 2475.67 264.932 2476.74 264.937C2478.04 264.865 2479.32 265.311 2480.3 266.178C2481.28 267.045 2481.87 268.262 2481.96 269.565Z" fill="#FF5463"/>
<path d="M2287.63 669.817H1748.27V1054.29H2287.63V669.817Z" fill="#FF5463"/>
<path d="M1930.21 848.301V924.961H1912.54V893.671H1877.86V924.961H1860.2V848.301H1877.86V878.417H1912.54V848.301H1930.21Z" fill="white"/>
<path d="M1964.04 862.707H1939.59V848.301H2006.15V862.707H1981.7V924.961H1964.04V862.707Z" fill="white"/>
<path d="M2015.67 848.301H2033.33V910.229H2071.6V924.961H2015.67V848.301Z" fill="white"/>
<path d="M2151 924.961V879.33L2128.51 917.009H2120.49L2098.13 880.308V924.961H2081.38V848.301H2095.98L2124.6 895.757L2152.69 848.301H2167.16V924.635L2151 924.961Z" fill="white"/>
<path d="M2291.93 726.856C2291.93 727.769 2170.16 728.551 2019.97 728.551C1869.78 728.551 1748.07 727.769 1748.07 726.856C1748.07 725.943 1869.78 725.161 2019.97 725.161C2170.16 725.161 2291.93 725.878 2291.93 726.856Z" fill="white"/>
<path d="M1792.33 698.76C1792.49 700.228 1792.2 701.708 1791.5 703.007C1790.8 704.306 1789.72 705.362 1788.41 706.036C1787.1 706.711 1785.61 706.972 1784.15 706.785C1782.69 706.598 1781.31 705.971 1780.21 704.989C1779.11 704.006 1778.34 702.713 1777.98 701.279C1777.63 699.846 1777.72 698.34 1778.25 696.96C1778.77 695.58 1779.7 694.39 1780.91 693.548C1782.12 692.706 1783.56 692.25 1785.03 692.242C1785.94 692.189 1786.85 692.316 1787.71 692.615C1788.57 692.914 1789.36 693.38 1790.04 693.986C1790.72 694.591 1791.27 695.325 1791.66 696.144C1792.06 696.963 1792.28 697.853 1792.33 698.76Z" fill="white"/>
<path d="M1818.8 698.76C1818.96 700.228 1818.67 701.708 1817.97 703.007C1817.27 704.306 1816.19 705.362 1814.88 706.036C1813.57 706.711 1812.08 706.972 1810.62 706.785C1809.15 706.598 1807.78 705.971 1806.68 704.989C1805.58 704.006 1804.8 702.713 1804.45 701.279C1804.1 699.846 1804.19 698.34 1804.71 696.96C1805.23 695.58 1806.16 694.39 1807.37 693.548C1808.59 692.706 1810.02 692.25 1811.5 692.242C1812.41 692.189 1813.32 692.316 1814.18 692.615C1815.03 692.914 1815.83 693.38 1816.5 693.986C1817.18 694.591 1817.73 695.325 1818.13 696.144C1818.52 696.963 1818.75 697.853 1818.8 698.76Z" fill="white"/>
<path d="M1845.27 698.76C1845.43 700.228 1845.13 701.708 1844.43 703.007C1843.73 704.306 1842.66 705.362 1841.34 706.036C1840.03 706.711 1838.55 706.972 1837.08 706.785C1835.62 706.598 1834.25 705.971 1833.15 704.989C1832.04 704.006 1831.27 702.713 1830.92 701.279C1830.57 699.846 1830.66 698.34 1831.18 696.96C1831.7 695.58 1832.63 694.39 1833.84 693.548C1835.05 692.706 1836.49 692.25 1837.97 692.242C1838.87 692.189 1839.78 692.316 1840.64 692.615C1841.5 692.914 1842.29 693.38 1842.97 693.986C1843.65 694.591 1844.2 695.325 1844.59 696.144C1844.99 696.963 1845.22 697.853 1845.27 698.76Z" fill="white"/>
<path d="M636.623 1426.91C636.568 1426.47 636.568 1426.04 636.623 1425.6V1422.02C636.623 1418.69 636.623 1414.06 636.623 1408.07C636.623 1395.75 636.623 1378.02 636.231 1355.53C636.231 1310.35 635.775 1246.08 635.449 1169.09L636.948 1170.52H379.131C378.74 1170.85 382.325 1167.33 380.826 1168.89V1203.83C380.826 1215.44 380.826 1226.98 380.826 1238.32V1304.94C380.826 1348.22 380.826 1389.1 380.826 1426.58L379.392 1425.08L565.829 1425.86L618.37 1426.25H632.32H635.905H632.451H618.761L566.611 1426.65L379.262 1427.43H377.762V1426.91C377.762 1389.42 377.762 1348.68 377.762 1305.27V1169.15C376.198 1170.65 379.783 1167 379.457 1167.39H637.274H638.709V1168.89C638.709 1246.27 638.187 1310.87 637.991 1356.24C637.991 1378.6 637.991 1396.27 637.6 1408.39C637.6 1414.26 637.6 1418.82 637.6 1422.08C637.6 1423.52 637.6 1424.62 637.6 1425.54C637.335 1426.03 637.006 1426.49 636.623 1426.91Z" fill="#263238"/>
<path d="M636.623 1171.63C637.275 1172.28 580.236 1230.3 509.246 1301.03C438.257 1371.76 379.979 1428.73 379.458 1428.08C378.936 1427.43 435.78 1369.41 506.834 1298.62C577.889 1227.82 635.971 1170.98 636.623 1171.63Z" fill="#263238"/>
<path d="M632.516 1425.28C631.864 1425.93 575.021 1369.67 505.596 1299.66C436.171 1229.65 380.37 1172.28 381.022 1171.63C381.674 1170.98 438.518 1227.24 508.008 1297.25C577.498 1367.26 633.168 1424.56 632.516 1425.28Z" fill="#263238"/>
<path d="M1174.1 1238.19C1174.1 1239.1 1071.62 1239.88 945.286 1239.88C818.953 1239.88 716.543 1239.1 716.543 1238.19C716.543 1237.28 818.953 1236.49 945.286 1236.49C1071.62 1236.49 1174.1 1237.28 1174.1 1238.19Z" fill="#263238"/>
<path d="M1174.1 1279.32C1174.1 1280.23 1071.62 1281.02 945.286 1281.02C818.953 1281.02 716.543 1280.23 716.543 1279.32C716.543 1278.41 818.953 1277.63 945.286 1277.63C1071.62 1277.63 1174.1 1278.34 1174.1 1279.32Z" fill="#263238"/>
<path d="M1174.1 1320.39C1174.1 1321.37 1071.62 1322.08 945.286 1322.08C818.953 1322.08 716.543 1321.37 716.543 1320.39C716.543 1319.41 818.953 1318.69 945.286 1318.69C1071.62 1318.69 1174.1 1319.48 1174.1 1320.39Z" fill="#263238"/>
<path d="M1174.1 1361.72C1174.1 1362.63 1071.62 1363.41 945.286 1363.41C818.953 1363.41 716.543 1362.63 716.543 1361.72C716.543 1360.81 818.953 1360.02 945.286 1360.02C1071.62 1360.02 1174.1 1360.55 1174.1 1361.72Z" fill="#263238"/>
<path d="M923.513 1197.05C923.513 1198.03 876.382 1198.81 818.365 1198.81C760.348 1198.81 713.218 1198.03 713.218 1197.05C713.218 1196.08 760.283 1195.36 818.365 1195.36C876.448 1195.36 923.513 1196.14 923.513 1197.05Z" fill="#263238"/>
<path d="M297.582 1091.25H374.307H588.97L1334.07 1092.56H1335.7V1094.45C1335.7 1221.57 1335.7 1359.37 1335.7 1502.39V1504.09H1240.91L1242.61 1502.39V1590.98L1239.74 1588.12L1154.99 1503.37L1156.17 1503.83L297.582 1503.18H296.408V1502.07C296.408 1374.04 296.93 1271.24 297.06 1200.38C297.06 1165.11 297.06 1137.8 297.06 1119.22C297.06 1110.09 297.06 1103.05 297.06 1098.3C297.06 1093.54 297.06 1091.25 297.06 1091.25C297.06 1091.25 297.06 1093.73 297.06 1098.56C297.06 1103.38 297.06 1110.42 297.06 1119.68C297.06 1138.32 297.06 1165.7 297.06 1201.03C297.06 1271.76 297.451 1374.3 297.712 1502.07L296.539 1500.89L1155.32 1500.37H1156.04L1156.49 1500.83L1241.24 1585.57L1238.3 1586.81V1500.37H1333.15L1331.46 1502.07C1331.46 1359.05 1331.46 1221.24 1331.46 1094.12L1333.09 1095.75L589.101 1092.88L373.982 1091.84H316.551H301.688L297.582 1091.25Z" fill="#263238"/>
<path d="M2939.05 2416.72H2373.22V2558.69H2939.05V2416.72Z" fill="#455A64"/>
<path d="M2857.89 2463.06H2513.05V2512.35H2857.89V2463.06Z" fill="#263238"/>
<path d="M2469.57 2490.57C2469.58 2496.03 2467.98 2501.37 2464.95 2505.91C2461.93 2510.45 2457.63 2514 2452.59 2516.1C2447.56 2518.19 2442.01 2518.75 2436.66 2517.69C2431.3 2516.63 2426.38 2514.01 2422.52 2510.16C2418.66 2506.31 2416.02 2501.39 2414.96 2496.04C2413.89 2490.69 2414.43 2485.14 2416.51 2480.1C2418.6 2475.06 2422.13 2470.75 2426.67 2467.72C2431.2 2464.68 2436.54 2463.06 2442 2463.06C2445.61 2463.06 2449.2 2463.76 2452.54 2465.14C2455.89 2466.52 2458.93 2468.54 2461.49 2471.1C2464.05 2473.65 2466.08 2476.69 2467.47 2480.03C2468.86 2483.37 2469.57 2486.96 2469.57 2490.57Z" fill="#263238"/>
<path d="M2884.81 2339.34H2432.87V2416.13H2884.81V2339.34Z" fill="#263238"/>
<path d="M2998.7 2197.42H2432.87V2339.4H2998.7V2197.42Z" fill="#FF5463"/>
<path d="M2605.16 2264.83C2605.61 2257.67 2608.14 2250.81 2612.46 2245.08C2616.77 2239.35 2622.67 2235.02 2629.42 2232.61C2636.17 2230.2 2643.48 2229.83 2650.44 2231.53C2657.4 2233.24 2663.71 2236.95 2668.59 2242.21L2658.74 2251.33C2656.7 2248.89 2654.13 2246.92 2651.24 2245.58C2648.34 2244.24 2645.18 2243.55 2641.99 2243.58C2636.55 2243.88 2631.43 2246.25 2627.69 2250.21C2623.94 2254.17 2621.85 2259.41 2621.85 2264.86C2621.85 2270.31 2623.94 2275.55 2627.69 2279.51C2631.43 2283.47 2636.55 2285.84 2641.99 2286.14C2645.2 2286.17 2648.37 2285.48 2651.27 2284.11C2654.17 2282.75 2656.72 2280.75 2658.74 2278.26L2668.59 2287.38C2663.74 2292.7 2657.44 2296.46 2650.46 2298.21C2643.49 2299.95 2636.15 2299.6 2629.38 2297.19C2622.6 2294.78 2616.69 2290.42 2612.38 2284.66C2608.07 2278.91 2605.56 2272.01 2605.16 2264.83Z" fill="white"/>
<path d="M2749.09 2270.63H2732.54V2286.8H2720.22V2270.63H2703.79V2259.03H2720.22V2242.93H2732.47V2259.03H2749.03L2749.09 2270.63Z" fill="white"/>
<path d="M2806.59 2270.63H2790.03V2286.8H2777.78V2270.63H2761.35V2259.03H2777.78V2242.93H2790.03V2259.03H2806.59V2270.63Z" fill="white"/>
<path d="M2516.96 2335.43C2516.05 2335.43 2515.27 2304.53 2515.27 2266.39C2515.27 2228.26 2516.05 2197.29 2516.96 2197.29C2517.87 2197.29 2518.66 2228.26 2518.66 2266.39C2518.66 2304.53 2518.13 2335.43 2516.96 2335.43Z" fill="#FAFAFA"/>
<path d="M2492.06 2335.43C2491.15 2335.43 2490.36 2304.53 2490.36 2266.39C2490.36 2228.26 2491.15 2197.29 2492.06 2197.29C2493.78 2220.28 2494.34 2243.35 2493.75 2266.39C2494.34 2289.42 2493.78 2312.46 2492.06 2335.43Z" fill="#FAFAFA"/>
<path d="M2908.61 2335.43C2906.89 2312.46 2906.32 2289.42 2906.91 2266.39C2906.32 2243.35 2906.89 2220.28 2908.61 2197.29C2909.52 2197.29 2910.3 2228.26 2910.3 2266.39C2910.3 2304.53 2909.26 2335.43 2908.61 2335.43Z" fill="#FAFAFA"/>
<path d="M2883.97 2335.43C2883.05 2335.43 2882.27 2304.53 2882.27 2266.39C2882.27 2228.26 2883.05 2197.29 2883.97 2197.29C2884.88 2197.29 2885.66 2228.26 2885.66 2266.39C2885.66 2304.53 2884.88 2335.43 2883.97 2335.43Z" fill="#FAFAFA"/>
<path d="M2619.83 2376.82C2619.76 2374.78 2620.12 2372.74 2620.88 2370.85C2621.64 2368.95 2622.79 2367.23 2624.24 2365.79C2625.7 2364.36 2627.44 2363.25 2629.35 2362.52C2631.26 2361.79 2633.3 2361.47 2635.34 2361.57C2637.66 2361.42 2639.97 2361.89 2642.05 2362.93C2644.12 2363.97 2645.88 2365.55 2647.14 2367.5L2644.14 2369.58C2643.17 2368.15 2641.86 2366.99 2640.32 2366.2C2638.78 2365.42 2637.07 2365.03 2635.34 2365.09C2632.23 2365.09 2629.25 2366.32 2627.04 2368.52C2624.84 2370.72 2623.61 2373.71 2623.61 2376.82C2623.61 2379.93 2624.84 2382.92 2627.04 2385.12C2629.25 2387.32 2632.23 2388.55 2635.34 2388.55C2637.06 2388.62 2638.76 2388.25 2640.3 2387.49C2641.83 2386.72 2643.15 2385.59 2644.14 2384.19L2647.14 2386.21C2645.89 2388.17 2644.13 2389.76 2642.06 2390.81C2639.98 2391.87 2637.66 2392.35 2635.34 2392.2C2633.29 2392.3 2631.24 2391.96 2629.33 2391.22C2627.41 2390.48 2625.67 2389.36 2624.22 2387.91C2622.76 2386.47 2621.61 2384.73 2620.86 2382.83C2620.1 2380.92 2619.75 2378.87 2619.83 2376.82Z" fill="#EBEBEB"/>
<path d="M2650.92 2388.49L2652.81 2385.23C2655.91 2387.49 2659.67 2388.68 2663.5 2388.62C2669.24 2388.62 2671.59 2386.66 2671.59 2383.73C2671.59 2375.84 2652.03 2382.04 2652.03 2370.11C2652.03 2365.22 2656.27 2361.57 2663.96 2361.57C2667.7 2361.47 2671.38 2362.44 2674.58 2364.37L2672.82 2367.63C2670.2 2365.88 2667.11 2364.97 2663.96 2365.02C2658.48 2365.02 2656.14 2367.17 2656.14 2370.04C2656.14 2378.19 2675.69 2372 2675.69 2383.6C2675.69 2388.82 2671.13 2392.21 2663.31 2392.21C2658.89 2392.33 2654.54 2391.03 2650.92 2388.49Z" fill="#EBEBEB"/>
<path d="M2678.95 2388.49L2680.84 2385.23C2683.94 2387.5 2687.69 2388.69 2691.53 2388.62C2697.27 2388.62 2699.62 2386.66 2699.62 2383.73C2699.62 2375.84 2680.06 2382.04 2680.06 2370.11C2680.06 2365.22 2684.3 2361.57 2691.99 2361.57C2695.73 2361.47 2699.41 2362.44 2702.62 2364.37L2700.86 2367.63C2698.23 2365.88 2695.14 2364.97 2691.99 2365.02C2686.51 2365.02 2684.17 2367.17 2684.17 2370.04C2684.17 2378.19 2703.72 2372 2703.72 2383.6C2703.72 2388.82 2699.16 2392.21 2691.34 2392.21C2686.92 2392.33 2682.57 2391.03 2678.95 2388.49Z" fill="#EBEBEB"/>
<path d="M2499.36 2391.42C2506.92 2391.42 2513.05 2385.29 2513.05 2377.73C2513.05 2370.17 2506.92 2364.04 2499.36 2364.04C2491.8 2364.04 2485.67 2370.17 2485.67 2377.73C2485.67 2385.29 2491.8 2391.42 2499.36 2391.42Z" fill="#EBEBEB"/>
<path d="M2842.44 2391.42C2850 2391.42 2856.13 2385.29 2856.13 2377.73C2856.13 2370.17 2850 2364.04 2842.44 2364.04C2834.88 2364.04 2828.75 2370.17 2828.75 2377.73C2828.75 2385.29 2834.88 2391.42 2842.44 2391.42Z" fill="#EBEBEB"/>
<path d="M1119.66 1655.06H169.097C125.895 1655.06 90.8721 1690.09 90.8721 1733.29V2331.12C90.8721 2374.33 125.895 2409.35 169.097 2409.35H1119.66C1162.87 2409.35 1197.89 2374.33 1197.89 2331.12V1733.29C1197.89 1690.09 1162.87 1655.06 1119.66 1655.06Z" fill="#263238"/>
<path d="M459.377 2230.08L398.101 2577.08H685.709L737.793 2222.98L459.377 2230.08Z" fill="#455A64"/>
<path d="M1075.73 1655.06H125.161C81.9582 1655.06 46.9355 1690.09 46.9355 1733.29V2331.12C46.9355 2374.33 81.9582 2409.35 125.161 2409.35H1075.73C1118.93 2409.35 1153.95 2374.33 1153.95 2331.12V1733.29C1153.95 1690.09 1118.93 1655.06 1075.73 1655.06Z" fill="#455A64"/>
<path d="M710.415 2409.35L737.794 2222.98L745.421 2409.35H710.415Z" fill="#263238"/>
<path d="M460.942 2210.79C461.855 2210.79 454.88 2257.14 445.362 2313.91C435.845 2370.69 427.436 2416.65 426.458 2416.52C425.48 2416.39 432.52 2370.17 442.038 2313.39C451.555 2256.61 460.03 2210.66 460.942 2210.79Z" fill="#263238"/>
<path d="M636.753 2006.1C636.753 2013.28 634.623 2020.3 630.634 2026.27C626.644 2032.24 620.973 2036.9 614.338 2039.64C607.704 2042.39 600.403 2043.11 593.36 2041.71C586.316 2040.31 579.847 2036.85 574.769 2031.77C569.691 2026.7 566.232 2020.23 564.831 2013.18C563.43 2006.14 564.15 1998.84 566.898 1992.2C569.646 1985.57 574.3 1979.9 580.271 1975.91C586.242 1971.92 593.262 1969.79 600.443 1969.79C605.214 1969.78 609.939 1970.71 614.349 1972.54C618.758 1974.36 622.764 1977.03 626.137 1980.4C629.511 1983.78 632.185 1987.78 634.006 1992.19C635.828 1996.6 636.761 2001.33 636.753 2006.1Z" fill="#FAFAFA"/>
<path d="M600.444 2042.54C593.237 2042.54 586.191 2040.4 580.199 2036.4C574.206 2032.39 569.536 2026.7 566.778 2020.04C564.02 2013.39 563.298 2006.06 564.704 1998.99C566.11 1991.92 569.581 1985.43 574.677 1980.33C579.773 1975.24 586.266 1971.76 593.335 1970.36C600.403 1968.95 607.73 1969.67 614.389 1972.43C621.047 1975.19 626.738 1979.86 630.743 1985.85C634.747 1991.85 636.884 1998.89 636.884 2006.1C636.867 2015.76 633.022 2025.02 626.192 2031.85C619.362 2038.68 610.103 2042.52 600.444 2042.54ZM600.444 1969.98C593.301 1969.98 586.319 1972.1 580.38 1976.07C574.441 1980.04 569.812 1985.68 567.079 1992.28C564.345 1998.88 563.63 2006.14 565.024 2013.14C566.417 2020.15 569.857 2026.58 574.907 2031.64C579.958 2036.69 586.393 2040.13 593.398 2041.52C600.404 2042.91 607.665 2042.2 614.264 2039.46C620.863 2036.73 626.503 2032.1 630.471 2026.16C634.44 2020.22 636.558 2013.24 636.558 2006.1C636.541 1996.53 632.73 1987.35 625.961 1980.58C619.192 1973.81 610.017 1970 600.444 1969.98Z" fill="#263238"/>
<path d="M323.983 1879.57C323.983 1879.57 341.062 1855.45 335.26 1828.66C335.26 1828.66 335.26 1819.99 322.222 1802.97C318.115 1797.56 313.438 1792.6 308.272 1788.18C303.666 1784.16 298.715 1780.56 293.475 1777.42C291.715 1776.31 290.606 1775.73 290.606 1775.73C271.454 1764.91 248.985 1761.55 227.505 1766.27C211.034 1769.66 195.996 1778.01 184.416 1790.2C180.555 1794.24 177.245 1798.78 174.572 1803.69C167.803 1814.93 163.444 1827.46 161.772 1840.48C160.1 1853.5 161.151 1866.72 164.859 1879.31C165.381 1881 165.968 1882.7 166.619 1884.33V1884.91C166.619 1885.5 167.076 1886.09 167.337 1886.61L167.858 1887.78C168.445 1889.15 168.966 1890.46 169.618 1891.76C171.209 1895.01 172.994 1898.17 174.963 1901.21C176.949 1904.79 179.38 1908.09 182.199 1911.05C187.589 1917.46 194.486 1922.42 202.27 1925.49C210.053 1928.56 218.479 1929.65 226.788 1928.66C230.107 1934.7 235.503 1939.33 241.976 1941.69C254.558 1944.56 275.027 1938.24 289.889 1930.29C304.752 1922.33 326.068 1907.14 325.743 1894.17C325.555 1889.3 324.789 1884.46 323.461 1879.76L323.983 1879.57Z" fill="#263238"/>
<path d="M213.424 1766.27C197.084 1769.7 182.184 1778.05 170.726 1790.2C166.845 1794.24 163.513 1798.78 160.818 1803.69C152.148 1820.38 137.22 1852.52 156.32 1891.76C175.42 1931 203.711 1930.02 216.488 1928.2C229.265 1926.37 310.228 1879.57 310.228 1879.57C310.228 1879.57 334.999 1844.69 314.856 1812.23C297.581 1784.46 260.555 1756.17 213.424 1766.27Z" fill="#FF5463"/>
<path d="M207.492 1917.31C207.492 1917.31 216.227 1938.69 228.809 1941.5C241.39 1944.3 261.794 1938.04 276.656 1930.09C291.519 1922.14 312.835 1906.95 312.51 1893.98C312.184 1881 305.991 1866.6 303.84 1865.42C293.757 1862.74 283.225 1862.2 272.92 1863.83C262.615 1865.46 252.764 1869.22 243.997 1874.88C227.084 1884.13 214.11 1899.21 207.492 1917.31Z" fill="#F5F5F5"/>
<g opacity="0.4">
<path d="M251.299 1793.59C255.328 1801.08 257.047 1809.6 256.237 1818.06C255.428 1826.53 252.127 1834.57 246.751 1841.16C241.376 1847.75 234.167 1852.6 226.035 1855.1C217.904 1857.59 209.215 1857.62 201.067 1855.18C192.919 1852.74 185.676 1847.94 180.255 1841.39C174.834 1834.83 171.477 1826.82 170.609 1818.36C169.741 1809.9 171.401 1801.37 175.378 1793.85C179.356 1786.33 185.473 1780.16 192.956 1776.12C197.933 1773.43 203.391 1771.75 209.018 1771.17C214.645 1770.59 220.331 1771.13 225.75 1772.75C231.169 1774.38 236.215 1777.05 240.599 1780.63C244.983 1784.2 248.619 1788.61 251.299 1793.59Z" fill="white"/>
</g>
<g opacity="0.4">
<path d="M168.902 1911.05C174.48 1899.03 175.499 1885.38 171.77 1872.66C167.66 1860.26 159.148 1849.8 147.846 1843.26C146.923 1858.01 149.145 1872.78 154.365 1886.61C157.693 1895.57 162.618 1903.85 168.902 1911.05Z" fill="white"/>
</g>
<g opacity="0.4">
<path d="M321.701 1828.72C308.602 1826.74 296.658 1820.1 288.064 1810.01C279.957 1800.49 275.826 1788.21 276.526 1775.73C288.802 1782.84 299.708 1792.09 308.728 1803.04C321.635 1820.12 321.701 1828.72 321.701 1828.72Z" fill="white"/>
</g>
<path d="M207.623 1917.05C207.836 1918.79 208.366 1920.47 209.188 1922.01C209.624 1922.77 210.281 1923.38 211.072 1923.77C211.862 1924.15 212.751 1924.29 213.62 1924.16C215.511 1923.7 216.554 1921.88 217.401 1920.18C226.441 1903.14 240.172 1889.05 256.97 1879.57C263.656 1875.51 271.203 1873.07 279.004 1872.46C286.044 1872.46 292.889 1874.22 299.929 1874.61C301.727 1874.82 303.547 1874.55 305.209 1873.83C306.773 1873.05 306.708 1871.23 306.317 1869.53C306.205 1868.71 305.928 1867.93 305.502 1867.22C305.076 1866.52 304.511 1865.9 303.84 1865.42C285.327 1857.8 262.381 1863.4 245.171 1873.38C228.578 1883.84 215.518 1899.06 207.688 1917.05" fill="#E0E0E0"/>
<path d="M1572.13 2514.3H942.353V2558.69H1572.13V2514.3Z" fill="#455A64"/>
<path d="M791.704 2497.22H823.255C836.671 2497.22 849.538 2502.55 859.025 2512.04C868.511 2521.53 873.841 2534.39 873.841 2547.81V2558.69H741.51V2547.81C741.509 2534.46 746.785 2521.65 756.187 2512.18C765.59 2502.7 778.356 2497.33 791.704 2497.22Z" fill="#455A64"/>
<path d="M871.559 2544.87C850.352 2546.55 829.071 2547.12 807.805 2546.57C786.517 2547.12 765.215 2546.55 743.986 2544.87C765.213 2543.16 786.517 2542.59 807.805 2543.18C829.071 2542.59 850.354 2543.16 871.559 2544.87Z" fill="#263238"/>
<path d="M808.784 2496.7C810.299 2504.4 810.672 2512.29 809.892 2520.1C810.203 2527.93 809.413 2535.77 807.545 2543.38C806.078 2535.69 805.727 2527.83 806.502 2520.04C806.172 2512.19 806.94 2504.34 808.784 2496.7Z" fill="#263238"/>
<path d="M3028.55 2558.69H0V2646.83H3028.55V2558.69Z" fill="#263238"/>
</svg>
