<svg width="208" height="141" viewBox="0 0 208 141" fill="none" xmlns="http://www.w3.org/2000/svg">
<path d="M192.666 0H14.3271C10.5595 0 7.50531 3.0542 7.50531 6.82174V130.306C7.50531 134.074 10.5595 137.128 14.3271 137.128H192.666C196.434 137.128 199.488 134.074 199.488 130.306V6.82174C199.488 3.0542 196.434 0 192.666 0Z" fill="#455A64"/>
<path d="M0 128.269H208V131.935C208 134.146 207.122 136.266 205.559 137.829C203.996 139.391 201.876 140.27 199.666 140.27H8.33404C6.12372 140.27 4.00392 139.391 2.44098 137.829C0.878046 136.266 0 134.146 0 131.935V128.269Z" fill="#455A64"/>
<path d="M193.799 5.44983H12.6603V121.251H193.799V5.44983Z" fill="#263238"/>
<path d="M84.5718 126.986L87.1516 131.42H123.47L125.868 126.986H84.5718Z" fill="#263238"/>
<path d="M188.907 9.36877H17.9182C17.0726 9.36877 16.3872 10.0542 16.3872 10.8998V119.345C16.3872 120.191 17.0726 120.876 17.9182 120.876H188.907C189.752 120.876 190.438 120.191 190.438 119.345V10.8998C190.438 10.0542 189.752 9.36877 188.907 9.36877Z" fill="#EBEBEB"/>
<path d="M190.255 121.04H16.2046L16.3872 17.7028H190.255V121.04Z" fill="#FAFAFA"/>
<path d="M31.0139 13.6763C31.0002 13.9562 30.9046 14.226 30.7391 14.4522C30.5735 14.6784 30.3452 14.8511 30.0825 14.9488C29.8198 15.0466 29.5342 15.0651 29.2611 15.0021C28.988 14.9392 28.7393 14.7975 28.5459 14.5946C28.3525 14.3917 28.2229 14.1366 28.173 13.8607C28.1232 13.5849 28.1554 13.3005 28.2656 13.0428C28.3758 12.785 28.5592 12.5653 28.793 12.4108C29.0269 12.2562 29.3009 12.1737 29.5812 12.1733C29.9703 12.1832 30.3397 12.3469 30.6082 12.6286C30.8768 12.9104 31.0227 13.2871 31.0139 13.6763Z" fill="#263238"/>
<path d="M22.324 13.6763C22.3103 13.9562 22.2147 14.226 22.0492 14.4522C21.8836 14.6784 21.6554 14.8511 21.3927 14.9488C21.13 15.0466 20.8444 15.0651 20.5712 15.0021C20.2981 14.9392 20.0494 14.7975 19.856 14.5946C19.6626 14.3917 19.533 14.1366 19.4831 13.8607C19.4333 13.5849 19.4655 13.3005 19.5757 13.0428C19.6859 12.785 19.8693 12.5653 20.1031 12.4108C20.337 12.2562 20.611 12.1737 20.8913 12.1733C21.2804 12.1832 21.6498 12.3469 21.9184 12.6286C22.1869 12.9104 22.3328 13.2871 22.324 13.6763Z" fill="#263238"/>
<path d="M26.7907 13.6763C26.7769 13.9562 26.6814 14.226 26.5158 14.4522C26.3503 14.6784 26.122 14.8511 25.8593 14.9488C25.5966 15.0466 25.311 15.0651 25.0379 15.0021C24.7647 14.9392 24.5161 14.7975 24.3227 14.5946C24.1293 14.3917 23.9996 14.1366 23.9498 13.8607C23.9 13.5849 23.9321 13.3005 24.0423 13.0428C24.1525 12.785 24.3359 12.5653 24.5698 12.4108C24.8036 12.2562 25.0777 12.1737 25.358 12.1733C25.7471 12.1832 26.1164 12.3469 26.385 12.6286C26.6536 12.9104 26.7995 13.2871 26.7907 13.6763Z" fill="#263238"/>
<path d="M197.84 126.986C197.84 127.061 155.233 127.118 102.677 127.118C50.1213 127.118 7.50531 127.061 7.50531 126.986C7.50531 126.912 50.1119 126.851 102.677 126.851C155.243 126.851 197.84 126.912 197.84 126.986Z" fill="#263238"/>
<path d="M84.717 37.5126C87.5469 35.8044 90.5921 34.4818 93.7721 33.5797L95.6449 24.6136L110.787 24.3467L112.968 33.2426C116.177 34.0349 119.266 35.2504 122.155 36.8571L129.81 31.8426L140.705 42.3632L135.967 50.1963C137.676 53.0273 138.998 56.0743 139.9 59.256L148.861 61.1289L149.128 76.2706L140.232 78.4524C139.438 81.6524 138.221 84.7322 136.613 87.6105L141.632 95.2657L131.111 106.161L123.288 101.418C120.457 103.127 117.41 104.45 114.228 105.351L112.355 114.317L97.2087 114.579L95.0316 105.683C91.8311 104.899 88.7497 103.691 85.8688 102.092L78.2136 107.111L67.3185 96.5907L72.0614 88.767C70.3509 85.9361 69.0267 82.8892 68.1238 79.7072L59.1624 77.8344L58.8955 62.6927L67.7914 60.5108C68.5829 57.3018 69.7984 54.2126 71.4059 51.3246L66.3915 43.6695L76.912 32.7744L84.717 37.5126ZM92.7889 57.6875C90.5572 59.9993 89.0611 62.9208 88.4897 66.0828C87.9184 69.2448 88.2975 72.5051 89.5791 75.4517C90.8607 78.3982 92.9872 80.8985 95.6898 82.6365C98.3923 84.3745 101.55 85.2721 104.762 85.2158C107.975 85.1595 111.099 84.1518 113.739 82.3202C116.379 80.4886 118.416 77.9153 119.594 74.9256C120.771 71.936 121.036 68.6643 120.354 65.5243C119.673 62.3843 118.075 59.517 115.764 57.2849C114.228 55.8035 112.415 54.6392 110.429 53.8584C108.444 53.0776 106.323 52.6956 104.19 52.7343C102.056 52.773 99.9515 53.2316 97.9953 54.0839C96.0391 54.9362 94.2699 56.1655 92.7889 57.7016V57.6875Z" fill="#E0E0E0"/>
<path d="M145.214 43.3042C145.421 42.1842 145.775 41.0964 146.267 40.0689L144.394 37.5406L147.784 33.5702L150.593 35.0404C151.53 34.3947 152.549 33.8767 153.623 33.5L154.091 30.3771L159.293 29.9697L160.229 32.9803C161.35 33.1872 162.438 33.5431 163.464 34.0384L165.993 32.1656L169.963 35.5601L168.493 38.3693C169.141 39.3072 169.661 40.3275 170.038 41.4033L173.156 41.8715L173.564 47.0779L170.553 48.0143C170.347 49.1355 169.992 50.2237 169.495 51.2496L171.368 53.7826L167.978 57.7483L165.169 56.2782C164.231 56.9263 163.21 57.4459 162.135 57.8232L161.666 60.9462L156.465 61.3535L155.528 58.3383C154.408 58.1329 153.32 57.7786 152.293 57.2848L149.76 59.1576L145.799 55.7257L147.269 52.9164C146.622 51.9781 146.102 50.9578 145.724 49.8825L142.606 49.4143L142.198 44.2078L145.209 43.2714L145.214 43.3042ZM152.27 44.8821C152.158 46.053 152.418 47.2292 153.01 48.245C153.603 49.2608 154.5 50.0649 155.574 50.544C156.648 51.0231 157.846 51.1531 158.998 50.9155C160.15 50.678 161.198 50.0849 161.995 49.2199C162.792 48.3549 163.297 47.2616 163.44 46.0941C163.583 44.9266 163.355 43.7438 162.79 42.7124C162.225 41.681 161.35 40.8531 160.289 40.3452C159.228 39.8373 158.035 39.6752 156.877 39.8816C155.668 40.0972 154.563 40.7028 153.731 41.6058C152.899 42.5089 152.386 43.6596 152.27 44.8821Z" fill="#E0E0E0"/>
<path d="M31.1918 95.57C31.2297 94.2248 31.4486 92.8909 31.8426 91.6043L29.1879 89.0151L32.4373 83.7806L35.9582 84.9979C36.9415 84.0751 38.0437 83.2878 39.2356 82.6569L39.2075 78.9346L45.2099 77.53L46.8346 80.8777C48.1797 80.9152 49.5137 81.1341 50.8003 81.5285L53.4175 78.8738L58.652 82.1231L57.4347 85.644C58.3575 86.6274 59.1448 87.7296 59.7757 88.9214L63.498 88.8934L64.9026 94.8911L61.5502 96.5064C61.5085 97.8515 61.2881 99.1851 60.8948 100.472L63.5495 103.085L60.3001 108.324L56.7792 107.107C55.7967 108.03 54.6944 108.818 53.5018 109.448L53.5299 113.17L47.5322 114.574L45.9028 111.227C44.5614 111.18 43.2322 110.953 41.9512 110.553L39.3386 113.207L34.0994 109.958L35.3167 106.437C34.3939 105.454 33.6066 104.351 32.9757 103.16L29.2301 103.188L27.8254 97.1899L31.1731 95.5606L31.1918 95.57ZM39.8677 97.2555C40.1684 98.5272 40.8393 99.6812 41.7956 100.572C42.7518 101.462 43.9506 102.05 45.2404 102.259C46.5302 102.469 47.8532 102.292 49.0423 101.75C50.2315 101.208 51.2334 100.326 51.9215 99.2151C52.6096 98.1042 52.953 96.8143 52.9084 95.5083C52.8638 94.2023 52.4332 92.9389 51.671 91.8775C50.9087 90.8161 49.849 90.0044 48.6257 89.5449C47.4024 89.0855 46.0704 88.9989 44.7979 89.296C43.9494 89.4937 43.1484 89.8571 42.4409 90.3654C41.7333 90.8737 41.1332 91.5168 40.6751 92.2578C40.2169 92.9988 39.9097 93.823 39.7712 94.6831C39.6326 95.5432 39.6654 96.4222 39.8677 97.2695V97.2555Z" fill="#E0E0E0"/>
<path d="M41.9652 45.5563C42.1181 44.7108 42.3859 43.89 42.7612 43.117L41.3565 41.2067L43.9129 38.2149L46.0199 39.3245C46.7267 38.8368 47.495 38.4448 48.3047 38.1587L48.6512 35.8177L52.5747 35.5087L53.277 37.7795C54.1215 37.9367 54.9417 38.2043 55.7164 38.5754L57.6267 37.1708L60.6138 39.7272L59.5088 41.8341C59.9969 42.54 60.3875 43.3086 60.67 44.119L63.011 44.4607L63.32 48.3843L61.0539 49.0679C60.899 49.9124 60.6329 50.7326 60.2627 51.5072L61.6673 53.4128L59.1109 56.4047L57.004 55.295C56.2982 55.7845 55.5297 56.1767 54.7191 56.4608L54.3773 58.8019L50.4538 59.1062L49.7468 56.8354C48.9014 56.6817 48.0808 56.414 47.3074 56.0395L45.4018 57.4441L42.41 54.8877L43.515 52.7807C43.0269 52.0748 42.6364 51.3063 42.3538 50.4959L40.0128 50.1494L39.7085 46.2259L41.9793 45.5236L41.9652 45.5563ZM47.2793 47.4619C47.3456 48.292 47.6563 49.0839 48.1722 49.7375C48.6881 50.3912 49.3862 50.8773 50.1782 51.1345C50.9702 51.3918 51.8207 51.4086 52.6222 51.1828C53.4237 50.9571 54.1404 50.4989 54.6818 49.8661C55.2231 49.2334 55.5648 48.4544 55.6638 47.6275C55.7628 46.8007 55.6145 45.9631 55.2378 45.2205C54.8611 44.4778 54.2728 43.8634 53.5471 43.4549C52.8215 43.0464 51.9911 42.862 51.1608 42.925C50.6076 42.967 50.0682 43.1178 49.5735 43.3688C49.0788 43.6198 48.6385 43.9659 48.2779 44.3874C47.9173 44.809 47.6434 45.2975 47.4721 45.8251C47.3007 46.3527 47.2352 46.909 47.2793 47.4619Z" fill="#EBEBEB"/>
<path d="M145.41 87.8118C145.546 87.0858 145.776 86.3806 146.094 85.7142L144.872 84.0755L147.068 81.505L148.88 82.4415C149.486 82.0213 150.146 81.6843 150.842 81.4395L151.137 79.4169L154.508 79.1547L155.112 81.1071C155.838 81.2403 156.544 81.4702 157.209 81.7907L158.848 80.5686L161.418 82.7645L160.482 84.5718C160.902 85.1797 161.239 85.841 161.484 86.5382L163.507 86.8332L163.769 90.2043L161.816 90.8083C161.683 91.5348 161.453 92.2403 161.133 92.9058L162.355 94.5446L160.159 97.1103L158.352 96.1739C157.743 96.5923 157.082 96.9292 156.385 97.1759L156.09 99.1938L152.719 99.456L152.115 97.5083C151.389 97.3729 150.684 97.143 150.018 96.8247L148.379 98.0467L145.799 95.8508L146.735 94.0436C146.315 93.4374 145.978 92.7776 145.733 92.0818L143.715 91.7868L143.449 88.4158L145.401 87.8118H145.41ZM149.975 89.4458C150.031 90.1623 150.298 90.8463 150.742 91.4109C151.187 91.9756 151.789 92.3955 152.473 92.6175C153.156 92.8394 153.89 92.8534 154.582 92.6576C155.273 92.4619 155.891 92.0652 156.357 91.5179C156.822 90.9705 157.115 90.2972 157.198 89.5833C157.28 88.8694 157.149 88.1471 156.821 87.5079C156.492 86.8686 155.981 86.3414 155.353 85.9929C154.724 85.6444 154.006 85.4903 153.29 85.5503C152.335 85.6291 151.45 86.0833 150.828 86.8134C150.207 87.5435 149.9 88.4901 149.975 89.4458Z" fill="#EBEBEB"/>
<path d="M104.002 92.8919H80.7186C79.35 92.8886 78.0062 92.526 76.8217 91.8405C75.6371 91.155 74.6532 90.1707 73.9683 88.9858C73.2835 87.8009 72.9216 86.4569 72.9189 85.0883C72.9162 83.7197 73.2728 82.3744 73.953 81.1868L85.6019 61.0119L97.2462 40.8369C97.9329 39.65 98.9198 38.6645 100.108 37.9794C101.296 37.2942 102.643 36.9336 104.014 36.9336C105.385 36.9336 106.733 37.2942 107.921 37.9794C109.108 38.6645 110.095 39.65 110.782 40.8369L122.431 61.0119L134.08 81.1868C134.76 82.3748 135.117 83.7205 135.114 85.0895C135.111 86.4585 134.749 87.8027 134.063 88.9878C133.378 90.1728 132.393 91.1571 131.208 91.8423C130.023 92.5274 128.679 92.8894 127.31 92.8919H104.002Z" fill="#E63946"/>
<path d="M129.079 83.4997C129.079 83.4997 129.14 83.6168 129.257 83.8602C129.457 84.348 129.534 84.8776 129.48 85.4019C129.426 85.9263 129.243 86.4292 128.948 86.8661C128.717 87.2111 128.419 87.5071 128.073 87.737C127.67 87.9932 127.21 88.1446 126.734 88.1771C122.763 88.2192 117.033 88.2099 109.944 88.2286L85.0448 88.2567H81.4864C80.8517 88.2498 80.2348 88.0461 79.7207 87.6738C79.2066 87.3015 78.8208 86.7788 78.6163 86.1778C78.3993 85.5776 78.3587 84.9277 78.4993 84.305C78.5367 84.1505 78.5882 83.996 78.6397 83.8368C78.6912 83.6776 78.7755 83.5419 78.8457 83.4014L79.3139 82.582C79.9132 81.4818 80.5219 80.3768 81.1306 79.2578L88.678 65.4036L96.2723 51.5588C97.4928 49.3208 98.6945 47.1249 99.8775 44.9711C100.177 44.4374 100.453 43.8989 100.772 43.3699C101.088 42.8294 101.54 42.3807 102.083 42.0683C102.615 41.7636 103.212 41.5902 103.824 41.5625C104.436 41.5348 105.046 41.6536 105.604 41.9091C106.156 42.1592 106.639 42.542 107.008 43.0234C107.328 43.5091 107.617 44.0142 107.874 44.5357C108.422 45.5377 108.965 46.5256 109.494 47.4994C110.562 49.4472 111.594 51.3372 112.589 53.1694C114.588 56.8261 116.447 60.2346 118.142 63.3435C121.532 69.5659 124.271 74.6038 126.167 78.092L128.34 82.1045C128.583 82.5727 128.77 82.9098 128.897 83.1532C129.023 83.3967 129.084 83.5138 129.084 83.5138C129.084 83.5138 129.009 83.3967 128.878 83.1626L128.298 82.1279L126.083 78.1341C124.173 74.6553 121.401 69.6362 117.992 63.4278L112.416 53.263L109.307 47.6024C108.773 46.6286 108.235 45.6407 107.682 44.6387C107.425 44.1329 107.139 43.6421 106.826 43.1685C106.48 42.719 106.03 42.3606 105.515 42.1244C104.99 41.8836 104.416 41.7716 103.839 41.7977C103.262 41.8237 102.7 41.9871 102.2 42.2743C101.692 42.571 101.27 42.9935 100.973 43.501C100.664 44.0113 100.383 44.5591 100.088 45.0929L96.483 51.6805C94.039 56.1566 91.5013 60.7871 88.9074 65.5347L81.3272 79.3795C80.7139 80.4985 80.1099 81.6082 79.5059 82.7038C79.1768 83.22 78.917 83.7772 78.7334 84.3612C78.5998 84.9447 78.6371 85.5542 78.841 86.117C79.0261 86.6745 79.3813 87.1601 79.8566 87.5053C80.332 87.8504 80.9036 88.0379 81.4911 88.0413H85.0494L109.949 88.0647L126.734 88.0881C127.194 88.0613 127.64 87.9196 128.031 87.6761C128.372 87.4546 128.666 87.1683 128.897 86.8333C129.257 86.3031 129.45 85.6766 129.449 85.0354C129.444 84.5021 129.317 83.9771 129.079 83.4997Z" fill="#263238"/>
<path d="M100.229 79.1829C100.229 77.1181 101.877 75.5777 104.222 75.5777C106.568 75.5777 108.179 77.1181 108.179 79.1829C108.179 81.2477 106.568 82.8583 104.222 82.8583C101.877 82.8583 100.229 81.2196 100.229 79.1829ZM100.266 58.0341H108.179L106.849 73.6159H101.563L100.266 58.0341Z" fill="white"/>
<path d="M105.117 38.5052C104.638 38.3433 104.141 38.2396 103.637 38.1961C102.413 38.1698 101.218 38.5704 100.257 39.3292C99.3185 40.1115 98.5627 41.0895 98.0421 42.1946C97.616 43.0374 97.4147 43.5992 97.3773 43.5758C97.3899 43.4375 97.4231 43.3018 97.4756 43.1732C97.5926 42.8144 97.7302 42.4627 97.8876 42.1197C98.3826 40.9598 99.1485 39.9355 100.121 39.1326C101.123 38.3375 102.384 37.9437 103.661 38.0276C104.043 38.0562 104.418 38.1479 104.77 38.2991C105 38.4068 105.126 38.4911 105.117 38.5052Z" fill="white"/>
<path d="M95.378 47.064C95.4742 46.66 95.6475 46.2785 95.8883 45.9403C96.2301 45.3644 96.5532 44.9243 96.6141 44.957C96.5152 45.3551 96.3403 45.7303 96.099 46.062C95.9254 46.4393 95.6806 46.7795 95.378 47.064Z" fill="white"/>
</svg>
